<?xml version="1.0" encoding="UTF-8"?><svg xmlns="http://www.w3.org/2000/svg" xmlns:xlink="http://www.w3.org/1999/xlink" height="500.6" preserveAspectRatio="xMidYMid meet" version="1.1" viewBox="-0.1 -0.6 270.1 500.6" width="270.1" zoomAndPan="magnify">
 <g id="surface1">
  <g id="change1_1"><path d="m262.09 331.42c-0.68-11.28-1.48-24.06-7.2-35.11-7.59-14.59-21.94-23.04-35.82-31.21-8.27-4.87-16.82-9.89-23.77-16.17 0-0.39 0.01-0.78 0.01-1.17-0.01-2.5-0.34-5.05-0.97-7.59-0.82-3.46-2.2-6.86-4.04-9.98-4.5-7.62-11.12-13.5-17.75-18.7 0.33-2.93 0.7-5.89 1.11-8.84 0.2-1.52 0.43-3.12 0.7-4.84 12.3-9.57 21.5-22.93 26.12-37.9 8.02 0.97 16.86-2.74 22.64-9.67 5.61-6.71 8.7-15.99 9.18-27.57 0.4-9.61-1.37-16.88-5.44-22.2-3.75-4.892-10.63-8.099-16.86-7.021 1.96-7.621 3.86-16.808 4.14-26.387 0.52-17.472-4.94-33.3-14.98-43.433-10.1-10.149-25.84-14.129-38.28-9.899-5.41-7.7378-15.43-13.019-26.22-13.652-12.41-0.71862-24.46 3.7736-35.715 8.422-11.851 4.891-24.172 10.469-33.16 20.16-10.898 11.77-16.39 29.77-15.062 49.402 0.332 4.879 1.031 9.879 2.132 15.219-4.968 0.36-10.082 3.039-13.261 7.189-4.071 5.31-5.848 12.57-5.438 22.2 0.481 11.58 3.567 20.86 9.168 27.56 5.781 6.94 14.621 10.64 22.641 9.68 5.16 16.66 16.109 31.45 30.379 40.98 0.172 1.25 0.351 2.48 0.511 3.74 0.321 2.46 0.61 4.73 0.84 6.86-6.629 5.2-13.261 11.08-17.761 18.7-3.399 5.75-5.188 12.51-4.989 18.75-6.961 6.27-15.488 11.29-23.769 16.16-13.883 8.16-28.231 16.61-35.821 31.21-5.7105 11-6.5112 23.81-7.2105 35.11l-8.1406 132.62c-0.058588 0.98 0.46094 1.89 1.3008 2.36 35.23 19.44 74.168 30.7 113.97 33.11 1.82 0.11 3.62 0.2 5.43 0.27 3.59 0.15 7.19 0.22 10.77 0.22 4.08 0 8.17-0.09 12.26-0.28 9.38-0.43 18.72-1.36 27.99-2.79 1.4-0.21 2.82-0.43 4.21-0.67 14.39-2.43 28.62-6.04 42.46-10.79 1.67-0.56 3.34-1.16 5-1.76 15.7-5.72 30.91-12.89 45.36-21.45 0.8-0.48 1.29-1.37 1.22-2.31l-7.88-128.53" fill="#0f0e0c"/></g>
  <g id="change2_1"><path d="m115.25 321.59c-0.07-0.8-0.14-1.6-0.21-2.4-0.9-9.26-2.61-18.54-5.9-27.26-3.46-9.17-9.355-16.96-13.445-25.79-4.601-9.92-6.101-25.21 3.621-32.11-0.203-5.54-0.55-11.07-1.043-16.57-5.347 4.38-10.48 9.3-14.019 15.29-2.348 3.96-3.797 8.48-4.18 12.84 2.012 11.65 7.102 22.36 15.949 30.46 1.223 1.13-1.128 2.52-2.168 1.75-8.23-6.09-14.261-14.46-16.761-24.06-7.059 6.1-15.34 10.97-23.371 15.69-13.879 8.17-26.989 15.88-33.907 29.2-5.222 10.06-5.98 22.3-6.652 33.1l-8.039 131.04c13.191 7.18 26.898 13.19 40.969 18-0.559-5.89 0.312-12.4 0.371-18.04 0.07-7.31 0.14-14.62 0.199-21.93 0.141-14.96 0.301-29.93 0.473-44.88 0.168-14.96 0.336-29.92 0.508-44.89 0.078-7.52 0.32-15.05 0.328-22.57 0-7.36-2.18-18.97-12.168-17.4-1.86 0.29-2.59-1.86-0.848-2.62 5.027-2.2 10.43-0.25 13.988 3.72 4.36 4.87 4.61 11.71 4.66 17.91 0.149 17.23-0.199 34.46-0.351 51.68-0.149 17.6-0.281 35.22-0.461 52.82-0.078 8.64-0.168 17.29-0.258 25.92-0.062 7.07 0.93 15.21-0.371 22.26 20.473 6.46 41.672 10.4 63.126 11.72 0.05-16.14 0.23-32.3 0.3-48.44 0.07-21.58 0.18-43.15 0.25-64.73 0.07-17.27 0.86-34.78-0.07-52.08-0.13-2.54-0.31-5.09-0.52-7.63zm56.27-64.62c2.25-5.3 2.89-12.78-0.73-17.38-0.09 3.79-0.11 7.58-0.04 11.35 0.05 1.39-1.07 2.54-2.45 2.57h-0.05c-1.37 0-2.48-1.1-2.52-2.48-0.09-4.92-0.05-9.88 0.09-14.84 0-0.4 0.02-0.8 0.04-1.19 0.25-7.58 0.75-15.15 1.55-22.65 0.36-3.44 0.77-6.93 1.27-10.38 0-0.05 0-0.1 0.02-0.17-1.5 0.97-3.04 1.86-4.59 2.69-9.25 4.96-19.89 7.89-30.75 8.5h-0.27c-10.86-0.61-21.5-3.54-30.75-8.5-0.16-0.08-0.32-0.16-0.46-0.24 0.39 2.92 0.69 5.58 0.94 8.08v0.02 0.01c0.7 6.5 1.18 13.04 1.45 19.61 0.03 0.65 0.05 1.31 0.07 1.96 0.21 5.7 0.27 11.41 0.16 17.1-0.02 1.37-1.12 2.48-2.5 2.48h-0.05c-1.38-0.03-2.485-1.18-2.454-2.57 0.059-3.92 0.059-7.85-0.039-11.79-8.703 13.74 6.953 32.68 12.793 45.12 6.39 13.61 8.57 28.54 9.29 43.45 1.57 1.52 3.16 3.01 4.78 4.48 3.45 3.12 7.57 7.54 12.22 3.58 6.07-5.17 11.53-11.31 16.64-17.42 0.32-0.38 0.64-0.77 0.96-1.17-0.73-13.28-0.41-26.82 4.32-39.4 2.81-7.45 7.97-13.56 11.06-20.82zm-128.59-141.75c3.992-2.11 11.351 5.23 8.472 9.33-0.422 0.62-1.691 1.08-2.281 1.63-1.75 1.65-2.629 3.69-2.719 6.09-0.191 5.52 4.629 10.33 9.86 11.14 1.148 0.17 2.718-1.24 1.64-2.3-4.16-4.08-10.949-7.75-4.269-13.68 2.558-2.27 3.277-3.97 1.558-7.3-2.32-4.44-8.129-10.46-13.039-5.64-0.511 0.5 0.301 0.98 0.778 0.73zm38.812-24.072c0 4.891 7.141 0 15.938 0 8.796 0 15.926 4.891 15.926 0 0-4.886-7.13-8.859-15.926-8.859-8.797 0-15.938 3.973-15.938 8.859zm29.964 72.622c10.43 13.67 33.76 15.98 44.31 0.87 1.95-2.78-2.2-4.18-4.18-2.67-5.75 4.36-11.82 7.73-19.25 7.46-6.55-0.25-12.57-3.21-17.34-7.58-1.23-1.14-4.87 0.15-3.54 1.92zm7.72-19.05c3.28 6.82 12.27 8.28 17.52 2.92 2.19-2.24-2.02-3.7-3.77-2.5-5.34 3.66-9.88-2.87-10-7.67-0.09-4.82 3.41-8.02 4.02-12.44 0.1-0.7-0.72-0.9-1.23-0.66-6.77 3.27-9.72 13.77-6.54 20.35zm30.25-54.439c0 4.891 7.12 0 15.93 0 8.8 0 15.94 4.891 15.94 0 0-4.89-7.14-8.851-15.94-8.851-8.81 0-15.93 3.961-15.93 8.851zm21.18 25.739c0-6.54-2.36-11.83-5.25-11.83-2.9 0-5.25 5.29-5.25 11.83 0 6.52 2.35 11.81 5.25 11.81 2.89 0 5.25-5.29 5.25-11.81zm-68.16 0c0-6.54-2.34-11.83-5.227-11.83-2.899 0-5.239 5.29-5.239 11.83 0 6.52 2.34 11.81 5.239 11.81 2.887 0 5.227-5.29 5.227-11.81zm104.51 8.71c0.08 2.77 1.17 4.05 2.68 6.08 1.57 2.08 2.61 3.52 1.7 6.19-0.64 1.95-2.16 3.5-2.91 5.42-0.56 1.43 1.27 2.09 2.32 1.41 3.89-2.49 7.09-7.58 5.11-12.31-1.3-3.1-4.91-4.43-4.45-8.35 0.48-4.01 3.96-5.89 5.5-9.24 0.39-0.9-0.68-1.61-1.5-1.27-4.54 1.92-8.57 6.98-8.45 12.07zm-168.03-2.27c-0.352-8.4 1.078-14.6 4.41-18.93 2.469-3.23 6.629-5.28 10.398-5.26 1.489 6.09 3.352 12.11 5.321 18.03 0.468 1.39 0.941 2.77 1.418 4.16 0.882 2.56 1.773 5.1 2.664 7.61 0.359 1.03 1.328 1.68 2.359 1.68 0.277 0 0.57-0.05 0.848-0.15 1.301-0.46 1.992-1.89 1.531-3.21-1.379-3.92-2.781-7.9-4.129-11.91 3.977-13.75 7.938-27.418 13.297-40.75 2.414-6 5.191-12.789 10.512-16.832 7.39-5.609 16.195 0.063 23.745 2.372 14.02 4.281 28 2.582 41.38-2.879 7.53-3.071 15.48-6.192 22.75-0.743 5.86 4.414 9.68 11.582 12.73 18.114 7.52 16.078 9.36 33.208 7.97 50.738-0.29 3.62 5.67 2.76 6.23-0.29 0.69-3.7 1.09-7.46 1.23-11.25 0.36-0.29 0.63-0.69 0.78-1.18 1.2-3.87 2.54-8.2 3.79-12.53 4.73-2.508 11.27 0.109 14.45 4.28 3.34 4.34 4.78 10.54 4.41 18.93-0.43 10.45-3.11 18.71-8 24.56-4.47 5.34-11.34 8.39-17.46 7.96 0.83-3.38 1.39-6.8 1.69-10.21 0.12-1.37-0.89-2.6-2.29-2.72-1.35-0.13-2.6 0.89-2.71 2.28-0.38 4.02-1.11 8.08-2.23 12.03v0.04c-2.09 7.55-5.43 14.71-9.77 21.14-4.36 6.45-9.77 12.18-15.98 16.88-2.81 2.13-5.77 4.02-8.77 5.65-8.59 4.58-18.43 7.31-28.53 7.89-10.06-0.58-19.93-3.31-28.52-7.89-1.65-0.9-3.22-1.82-4.65-2.77 0 0-0.01 0-0.01-0.01-14.364-9.26-25.247-24.18-29.864-40.92-0.012-0.03-0.02-0.06-0.031-0.09-1.09-3.95-1.821-7.98-2.188-11.95-0.121-1.39-1.344-2.41-2.723-2.28-1.379 0.12-2.398 1.35-2.277 2.72 0.309 3.4 0.859 6.82 1.68 10.21-6.133 0.43-12.992-2.61-17.453-7.96-4.879-5.85-7.579-14.11-8.008-24.56zm184.82 355.66c0.22-5.53-0.44-11.38-0.48-16.63-0.07-7.64-0.14-15.28-0.22-22.92-0.14-14.96-0.3-29.91-0.48-44.86-0.16-14.95-0.32-29.9-0.5-44.84-0.07-7.13-0.39-14.28-0.3-21.4 0.09-7.44 2.39-17.89 12.09-16.39 1.32 0.2 2.98-1.78 1.34-2.53-4.64-2.12-9.39-0.76-13.11 2.6-5.14 4.64-5.84 11.65-5.95 18.18-0.3 17.19 0.18 34.43 0.33 51.63 0.14 17.29 0.28 34.57 0.46 51.85 0.07 8.65 0.16 17.29 0.25 25.93 0.04 4.65 0.09 9.31 0.13 13.95 0.03 2.53-0.15 5.18-0.01 7.76-13.59 4.7-27.55 8.29-41.69 10.72-2.47-38.01-6.04-75.96-9.22-113.92-1.62-19.35-3.64-38.71-4.89-58.11 0-0.14-0.02-0.29-0.03-0.43-0.18-2.79-0.31-5.57-0.36-8.33v-0.01c-0.29-14.69 1.57-28.94 9.1-42.1 3.86-6.74 8.43-14.13 6.77-22.23-0.84-4.2-2.98-7.76-6.37-9.74 0.18-6.28 0.55-12.58 1.1-18.83 5.36 4.37 10.49 9.3 14.02 15.28 2.91 4.92 4.45 10.68 4.27 15.96-0.91 2.29-1.93 4.55-3.2 6.71-3.08 5.21-7.19 9.35-11.78 13.22-1.48 1.24 1.04 2.36 2.16 1.73 6.32-3.56 12.27-9.66 15.68-16.66 7.09 6.11 15.37 11 23.41 15.72 13.87 8.18 26.98 15.89 33.91 29.19 5.23 10.11 5.98 22.32 6.64 33.11l7.79 126.98c-13.06 7.64-26.75 14.13-40.86 19.41" fill="#fff"/></g>
  <g id="change1_2"><path d="m57.906 141.11c1.078 1.06-0.492 2.47-1.64 2.3-5.231-0.81-10.051-5.62-9.86-11.14 0.09-2.4 0.969-4.44 2.719-6.09 0.59-0.55 1.859-1.01 2.281-1.63 2.879-4.1-4.48-11.44-8.472-9.33-0.477 0.25-1.289-0.23-0.778-0.73 4.91-4.82 10.719 1.2 13.039 5.64 1.719 3.33 1 5.03-1.558 7.3-6.68 5.93 0.109 9.6 4.269 13.68zm44.794-25.09c0 6.52-2.34 11.81-5.227 11.81-2.899 0-5.239-5.29-5.239-11.81 0-6.54 2.34-11.83 5.239-11.83 2.887 0 5.227 5.29 5.227 11.83zm-5.016-24.872c-8.797 0-15.938 4.891-15.938 0 0-4.886 7.141-8.859 15.938-8.859 8.796 0 15.926 3.973 15.926 8.859 0 4.891-7.13 0-15.926 0zm21.746 53.572c-3.18-6.58-0.23-17.08 6.54-20.35 0.51-0.24 1.33-0.04 1.23 0.66-0.61 4.42-4.11 7.62-4.02 12.44 0.12 4.8 4.66 11.33 10 7.67 1.75-1.2 5.96 0.26 3.77 2.5-5.25 5.36-14.24 3.9-17.52-2.92zm-4.18 17.13c4.77 4.37 10.79 7.33 17.34 7.58 7.43 0.27 13.5-3.1 19.25-7.46 1.98-1.51 6.13-0.11 4.18 2.67-10.55 15.11-33.88 12.8-44.31-0.87-1.33-1.77 2.31-3.06 3.54-1.92zm55.61-45.83c0 6.52-2.36 11.81-5.25 11.81-2.9 0-5.25-5.29-5.25-11.81 0-6.54 2.35-11.83 5.25-11.83 2.89 0 5.25 5.29 5.25 11.83zm-21.18-25.739c0-4.89 7.12-8.851 15.93-8.851 8.8 0 15.94 3.961 15.94 8.851 0 4.891-7.14 0-15.94 0-8.81 0-15.93 4.891-15.93 0zm60.21 40.529c-1.51-2.03-2.6-3.31-2.68-6.08-0.12-5.09 3.91-10.15 8.45-12.07 0.82-0.34 1.89 0.37 1.5 1.27-1.54 3.35-5.02 5.23-5.5 9.24-0.46 3.92 3.15 5.25 4.45 8.35 1.98 4.73-1.22 9.82-5.11 12.31-1.05 0.68-2.88 0.02-2.32-1.41 0.75-1.92 2.27-3.47 2.91-5.42 0.91-2.67-0.13-4.11-1.7-6.19zm14.11 347.31c0.22-5.53-0.44-11.38-0.48-16.63-0.07-7.64-0.14-15.28-0.22-22.92-0.14-14.96-0.3-29.91-0.48-44.86-0.16-14.95-0.32-29.9-0.5-44.84-0.07-7.13-0.39-14.28-0.3-21.4 0.09-7.44 2.39-17.89 12.09-16.39 1.32 0.2 2.98-1.78 1.34-2.53-4.64-2.12-9.39-0.76-13.11 2.6-5.14 4.64-5.84 11.65-5.95 18.18-0.3 17.19 0.18 34.43 0.33 51.63 0.14 17.29 0.28 34.57 0.46 51.85 0.07 8.65 0.16 17.29 0.25 25.93 0.04 4.65 0.09 9.31 0.13 13.95 0.03 2.53-0.15 5.18-0.01 7.76-13.59 4.7-27.55 8.29-41.69 10.72-2.47-38.01-6.04-75.96-9.22-113.92-1.62-19.35-3.64-38.71-4.89-58.11 0-0.14-0.02-0.29-0.03-0.43-0.18-2.79-0.31-5.57-0.36-8.33v-0.01c-0.29-14.69 1.57-28.94 9.1-42.1 3.86-6.74 8.43-14.13 6.77-22.23-0.84-4.2-2.98-7.76-6.37-9.74 0.18-6.28 0.55-12.58 1.1-18.83 5.36 4.37 10.49 9.3 14.02 15.28 2.91 4.92 4.45 10.68 4.27 15.96-0.91 2.29-1.93 4.55-3.2 6.71-3.08 5.21-7.19 9.35-11.78 13.22-1.48 1.24 1.04 2.36 2.16 1.73 6.32-3.56 12.27-9.66 15.68-16.66 7.09 6.11 15.37 11 23.41 15.72 13.87 8.18 26.98 15.89 33.91 29.19 5.23 10.11 5.98 22.32 6.64 33.11l7.79 126.98c-13.06 7.64-26.75 14.13-40.86 19.41zm-111.75-193.85c-5.84-12.44-21.496-31.38-12.793-45.12 0.098 3.94 0.098 7.87 0.039 11.79-0.031 1.39 1.074 2.54 2.454 2.57h0.05c1.38 0 2.48-1.11 2.5-2.48 0.11-5.69 0.05-11.4-0.16-17.1-0.02-0.65-0.04-1.31-0.07-1.96-0.27-6.57-0.75-13.11-1.45-19.61v-0.01-0.02c-0.25-2.5-0.55-5.16-0.94-8.08 0.14 0.08 0.3 0.16 0.46 0.24 9.25 4.96 19.89 7.89 30.75 8.5h0.27c10.86-0.61 21.5-3.54 30.75-8.5 1.55-0.83 3.09-1.72 4.59-2.69-0.02 0.07-0.02 0.12-0.02 0.17-0.5 3.45-0.91 6.94-1.27 10.38-0.8 7.5-1.3 15.07-1.55 22.65-0.02 0.39-0.04 0.79-0.04 1.19-0.14 4.96-0.18 9.92-0.09 14.84 0.04 1.38 1.15 2.48 2.52 2.48h0.05c1.38-0.03 2.5-1.18 2.45-2.57-0.07-3.77-0.05-7.56 0.04-11.35 3.62 4.6 2.98 12.08 0.73 17.38-3.09 7.26-8.25 13.37-11.06 20.82-4.73 12.58-5.05 26.12-4.32 39.4-0.32 0.4-0.64 0.79-0.96 1.17-5.11 6.11-10.57 12.25-16.64 17.42-4.65 3.96-8.77-0.46-12.22-3.58-1.62-1.47-3.21-2.96-4.78-4.48-0.72-14.91-2.9-29.84-9.29-43.45zm3.59 97.03c-0.07 21.58-0.18 43.15-0.25 64.73-0.07 16.14-0.25 32.3-0.3 48.44-21.454-1.32-42.653-5.26-63.126-11.72 1.301-7.05 0.309-15.19 0.371-22.26 0.09-8.63 0.18-17.28 0.258-25.92 0.18-17.6 0.312-35.22 0.461-52.82 0.152-17.22 0.5-34.45 0.351-51.68-0.05-6.2-0.3-13.04-4.66-17.91-3.558-3.97-8.961-5.92-13.988-3.72-1.742 0.76-1.012 2.91 0.848 2.62 9.988-1.57 12.168 10.04 12.168 17.4-0.008 7.52-0.25 15.05-0.328 22.57-0.172 14.97-0.34 29.93-0.508 44.89-0.172 14.95-0.332 29.92-0.473 44.88-0.059 7.31-0.129 14.62-0.199 21.93-0.059 5.64-0.93 12.15-0.371 18.04-14.071-4.81-27.778-10.82-40.969-18l8.039-131.04c0.672-10.8 1.43-23.04 6.652-33.1 6.918-13.32 20.028-21.03 33.907-29.2 8.031-4.72 16.312-9.59 23.371-15.69 2.5 9.6 8.531 17.97 16.761 24.06 1.04 0.77 3.391-0.62 2.168-1.75-8.847-8.1-13.937-18.81-15.949-30.46 0.383-4.36 1.832-8.88 4.18-12.84 3.539-5.99 8.672-10.91 14.019-15.29 0.493 5.5 0.84 11.03 1.043 16.57-9.722 6.9-8.222 22.19-3.621 32.11 4.09 8.83 9.985 16.62 13.445 25.79 3.29 8.72 5 18 5.9 27.26 0.07 0.8 0.14 1.6 0.21 2.4 0.21 2.54 0.39 5.09 0.52 7.63 0.93 17.3 0.14 34.81 0.07 52.08zm-45.664-224.93c-0.012-0.03-0.02-0.06-0.031-0.09-1.09-3.95-1.821-7.98-2.188-11.95-0.121-1.39-1.344-2.41-2.723-2.28-1.379 0.12-2.398 1.35-2.277 2.72 0.309 3.4 0.859 6.82 1.68 10.21-6.133 0.43-12.992-2.61-17.453-7.96-4.879-5.85-7.579-14.11-8.008-24.56-0.352-8.4 1.078-14.6 4.41-18.93 2.469-3.23 6.629-5.28 10.398-5.26 1.489 6.09 3.352 12.11 5.321 18.03 0.468 1.39 0.941 2.77 1.418 4.16 0.882 2.56 1.773 5.1 2.664 7.61 0.359 1.03 1.328 1.68 2.359 1.68 0.277 0 0.57-0.05 0.848-0.15 1.301-0.46 1.992-1.89 1.531-3.21-1.379-3.92-2.781-7.9-4.129-11.91 3.977-13.75 7.938-27.418 13.297-40.75 2.414-6 5.191-12.789 10.512-16.832 7.39-5.609 16.195 0.063 23.745 2.372 14.02 4.281 28 2.582 41.38-2.879 7.53-3.071 15.48-6.192 22.75-0.743 5.86 4.414 9.68 11.582 12.73 18.114 7.52 16.078 9.36 33.208 7.97 50.738-0.29 3.62 5.67 2.76 6.23-0.29 0.69-3.7 1.09-7.46 1.23-11.25 0.36-0.29 0.63-0.69 0.78-1.18 1.2-3.87 2.54-8.2 3.79-12.53 4.73-2.508 11.27 0.109 14.45 4.28 3.34 4.34 4.78 10.54 4.41 18.93-0.43 10.45-3.11 18.71-8 24.56-4.47 5.34-11.34 8.39-17.46 7.96 0.83-3.38 1.39-6.8 1.69-10.21 0.12-1.37-0.89-2.6-2.29-2.72-1.35-0.13-2.6 0.89-2.71 2.28-0.38 4.02-1.11 8.08-2.23 12.03v0.04c-2.09 7.55-5.43 14.71-9.77 21.14-4.36 6.45-9.77 12.18-15.98 16.88-2.81 2.13-5.77 4.02-8.77 5.65-8.59 4.58-18.43 7.31-28.53 7.89-10.06-0.58-19.93-3.31-28.52-7.89-1.65-0.9-3.22-1.82-4.65-2.77 0 0-0.01 0-0.01-0.01-14.364-9.26-25.247-24.18-29.864-40.92zm191.91 175.05c-0.68-11.28-1.48-24.06-7.2-35.11-7.59-14.59-21.94-23.04-35.82-31.21-8.27-4.87-16.82-9.89-23.77-16.17 0-0.39 0.01-0.78 0.01-1.17-0.01-2.5-0.34-5.05-0.97-7.59-0.82-3.46-2.2-6.86-4.04-9.98-4.5-7.62-11.12-13.5-17.75-18.7 0.33-2.93 0.7-5.89 1.11-8.84 0.2-1.52 0.43-3.12 0.7-4.84 12.3-9.57 21.5-22.93 26.12-37.9 8.02 0.97 16.86-2.74 22.64-9.67 5.61-6.71 8.7-15.99 9.18-27.57 0.4-9.61-1.37-16.88-5.44-22.2-3.75-4.892-10.63-8.099-16.86-7.021 1.96-7.621 3.86-16.808 4.14-26.387 0.52-17.472-4.94-33.3-14.98-43.433-10.1-10.149-25.84-14.129-38.28-9.899-5.41-7.7378-15.43-13.019-26.22-13.652-12.41-0.71862-24.46 3.7736-35.715 8.422-11.851 4.891-24.172 10.469-33.16 20.16-10.898 11.77-16.39 29.77-15.062 49.402 0.332 4.879 1.031 9.879 2.132 15.219-4.968 0.36-10.082 3.039-13.261 7.189-4.071 5.31-5.848 12.57-5.438 22.2 0.481 11.58 3.567 20.86 9.168 27.56 5.781 6.94 14.621 10.64 22.641 9.68 5.16 16.66 16.109 31.45 30.379 40.98 0.172 1.25 0.351 2.48 0.511 3.74 0.321 2.46 0.61 4.73 0.84 6.86-6.629 5.2-13.261 11.08-17.761 18.7-3.399 5.75-5.188 12.51-4.989 18.75-6.961 6.27-15.488 11.29-23.769 16.16-13.883 8.16-28.231 16.61-35.821 31.21-5.7105 11-6.5112 23.81-7.2105 35.11l-8.1406 132.62c-0.058588 0.98 0.46094 1.89 1.3008 2.36 35.23 19.44 74.168 30.7 113.97 33.11 1.82 0.11 3.62 0.2 5.43 0.27 3.59 0.15 7.19 0.22 10.77 0.22 4.08 0 8.17-0.09 12.26-0.28 9.38-0.43 18.72-1.36 27.99-2.79 1.4-0.21 2.82-0.43 4.21-0.67 14.39-2.43 28.62-6.04 42.46-10.79 1.67-0.56 3.34-1.16 5-1.76 15.7-5.72 30.91-12.89 45.36-21.45 0.8-0.48 1.29-1.37 1.22-2.31l-7.88-128.53" fill="#0f0e0c"/></g>
 </g>
</svg>