<?xml version="1.0" encoding="UTF-8"?><svg xmlns="http://www.w3.org/2000/svg" xmlns:xlink="http://www.w3.org/1999/xlink" height="50.5" preserveAspectRatio="xMidYMid meet" version="1.0" viewBox="0.0 -0.1 320.2 50.5" width="320.2" zoomAndPan="magnify"><linearGradient gradientUnits="userSpaceOnUse" id="a" x1="0" x2="320.081" xlink:actuate="onLoad" xlink:show="other" xlink:type="simple" xmlns:xlink="http://www.w3.org/1999/xlink" y1="25.087" y2="25.087"><stop offset="0" stop-color="#fca5f1"/><stop offset="1" stop-color="#b5ffff"/></linearGradient><path d="M208.95,14.49c1.68-0.74,5.87-0.42,8.84-0.66c0.09,0.16-0.16,0.19-0.41,0.21 c-0.19,0.49,2.07-0.61,1.7,0.32c1.56,0.06,4.2-0.4,5.07,0.01c-1.69,0.06-3.38,0.12-5.06,0.18c-1.46-0.32-1.95,0.13-3.38-0.07 c-0.22-0.03,1.07-0.37,1.26-0.24c-0.77-0.54-2.88,0.12-5.49-0.02c-0.06,0.42,1.5,0.05,2.11,0.14 C213.98,14.89,210.35,14.36,208.95,14.49z M221.04,10.24c0.79-0.41-3.38,0-4.64-0.03c-0.03-0.12-0.07-0.23-0.43-0.18 C216.17,10.85,219.51,10.09,221.04,10.24z M217.75,12.68c-2.1,0.19-3.16-0.4-4.21,0.34C214.82,12.85,217.18,13.14,217.75,12.68z M232.97,13.45c-0.83-0.14-4.97-0.53-7.17,0.09C228.32,13.78,230.17,14.17,232.97,13.45z M134.67,12.07 c0.01,0.26-0.21,0.42-0.44,0.56c1.32-0.01,3.26-1.2,5.03-0.37c-0.36-0.17-1.31,0.13-1.26,0.14c1.32,0.15,3.02,0.2,4.32,0.3 c1.3,0.09,2.2,0.26,1.92,0.69c1.08-0.53,3.24-0.35,4.2-0.47c-0.74-0.11,0.19-0.2,0.43-0.37c-2.85,0.06-5.82,0.07-7.53-0.2 c0.01-0.26,0.74-0.15,0.84-0.35C138.68,11.66,126.39,12.27,134.67,12.07z M156.4,12.93c2.15,0.12,9.34-0.01,3.77-0.15 c-1.17-0.27-2.99,0.01-4.18-0.63c-1.57,0.46-5.49-0.23-5.87,0.81C151.46,12.55,158.42,13.75,156.4,12.93z M203.46,14.25 c-1.9-0.05-3.13-0.26-4.21,0.3C200.52,14.4,202.88,14.7,203.46,14.25z M176.1,11.32c-1.41,0.13-3.06,0.15-3.77,0.59 C174.18,11.99,175.27,11.71,176.1,11.32z M249.08,9.32c-0.22-0.37-2.06-0.35-3.8-0.22c-1.75,0.12-3.41,0.35-3.26,0.43 C244.41,9.47,247.3,9.1,249.08,9.32z M191.63,11.96c-2.14-0.21-5.14,0-7.14-0.28C185.6,12.26,189.95,12.31,191.63,11.96z M264.42,10.77c1.91-0.15,3.71-0.38,5.78-1.04c-4.28,0.81-9.29,0.65-12.27,1.5C260.49,10.97,262.52,10.93,264.42,10.77z M283.34,6.57c-0.2,0.09-0.4,0.18-0.59,0.26C283.03,6.77,283.35,6.72,283.34,6.57z M282.56,6.87c0.03,0,0.06,0,0.1-0.01 c0.03-0.01,0.06-0.02,0.08-0.04C282.68,6.84,282.62,6.85,282.56,6.87z M252.46,10.07c0.55-0.55,5.82-0.26,4.49-0.9 C256.83,9.52,251.41,9.4,252.46,10.07z M274.08,7.47c-1.36,0.19-2.59,0.39-3.2,0.83c2.57-0.38,5.45-0.72,7.2-1.42 C276.92,7.14,275.43,7.28,274.08,7.47z M287.69,5.72c-1.19,0.31-3.45,0.3-3.95,0.79C284.94,6.24,287.21,6.23,287.69,5.72z M294.01,5.28c3.62-0.76,7.22-1.64,11.43-2.35c-1.05-0.17-2.4-0.1-3.89,0.09c-1.5,0.19-3.18,0.45-4.86,0.75 c4.84-1.34,10.17-1.43,15.24-2.61c0.78-0.27-0.11-0.85,0.51-1.14c2.01-0.16,2.55,0.99,4.69,0.73c-0.37,0.63-2.01,1.02-2.85,1.57 c0.86-0.73-0.44-0.59-1.02-0.72c-0.83,0.2-1.06,0.51-1.27,0.82c0.3-0.59-1.54-0.34-3.42-0.03c-1.01,1.17,1.36,0.82,2.05,1.68 c-0.62,0.46-1.99,0.76-3.17,1.1c-1.18,0.34-2.18,0.68-2.02,1.32c-0.98,0.06-2.12,0.26-3.26,0.45c-1.13,0.18-2.26,0.32-3.18,0.31 c0.58-0.7,2.14-0.29,3.16-0.63c-1.7-0.35-3.79-0.41-6.13-0.22c-1.18,0.07-2.42,0.19-3.71,0.35c-0.64,0.08-1.3,0.17-1.96,0.27 c-0.67,0.09-1.35,0.19-2.04,0.28c-5.48,0.85-11.52,1.91-16.88,2.5c4.99-1.18,7.95-1.55,11.22-2.93 C286.83,6.68,290.42,6.03,294.01,5.28z M301.22,6.03c0.97-0.07,2.55,0.49,3.61-0.39C303.72,5.82,301.74,5.57,301.22,6.03z M279.63,6.3c1.51-0.28,4.18-0.76,6.38-0.9C285.03,4.84,278.94,6.14,279.63,6.3z M261.48,9c-1.09,0.09-2.19,0.18-3.28,0.26 c-0.35,0.94,3.08-0.28,3.33,0.31c-0.68,0.08-3.73,0.19-2.45,0.39c3.19-0.24,10.78-0.87,10.61-1.16c-0.72-0.03-2.36,0.48-2.46,0.06 c0.77-0.46,2.24-0.69,3.17-1.1c-1.28-0.6-2.41,1.01-3.66,0.37c-0.34-0.49,1.94-0.04,1.59-0.54c-1.86,0.2-3.72,0.38-5.5,0.61 c-1.78,0.21-3.5,0.43-5.09,0.71C258.9,9,260.64,8.74,261.48,9z M298.3,1.68c0.64-0.25,1.3-0.42,1.97-0.54 c0.66-0.13,1.3-0.24,1.9-0.33c1.19-0.18,2.19-0.33,2.63-0.7c-2.44,0.31-4.16,0.11-6.38,0.17C298.07,0.89,297.74,1.24,298.3,1.68z M233.44,14.4c-1.48,0.03-2.7,0.16-3.36,0.53C231.56,14.9,232.78,14.76,233.44,14.4z M79.3,38.61c-2.74-0.33-5.64-0.76-7.39-0.5 C74.34,38.25,77.25,38.68,79.3,38.61z M63.66,18.88c1.44-0.05,2.84-0.12,3.9-0.41c-1.18,0.09-5.13-0.53-4.68-0.09 c0.62,0.12,1.56,0.15,1.65,0.43C63.94,18.71,62.91,18.62,63.66,18.88z M52.93,29.79c-2.67-0.6-4.71-0.51-0.88,0.05 c1.87,0.22,4.79,0.98,6.01,0.72c-1.11,0.1-1.22-0.95-1.68-0.44c0.26,0.05,0.5,0.1,0.4,0.25C55.94,29.65,54.57,29.96,52.93,29.79z M317.71,30.56c0.15,0.32,1.5-0.24,1.83-0.06c-4.88,1.85-5.99,4.93-4.38,6.84c-2.82,0.54-3.69,1.37-4.59,2.24 c-0.9,0.86-1.83,1.73-4.77,2.14c-1.06,0.26,0.6,0.41,1.01,0.39c-2.18,0.33-4.74,0.72-7.51,1.15c-2.76,0.44-5.72,0.82-8.71,1.24 c-5.98,0.76-12.11,1.44-17.03,1.76c-0.78-0.31,0.02-0.25-0.08-0.77c-16.29,1.29-32.22,2.37-47.85,3.27 c-15.64,0.94-31.3,1.62-46.88,1.35c-4.23-0.08-8.34-0.21-12.58-0.4c-19.08-0.73-38.72-1.67-57.36-3.72 c-1.94-0.22-4.62-0.49-7.32-0.71c-2.7-0.22-5.44-0.39-7.48-0.5c-0.51-0.08-0.34-0.39-0.38-0.62c-1.21,0.27-3.81-0.26-5.68-0.36 c-0.19-0.32,4.21,0.22,5.28-0.06c-1.11-0.48-3.54-0.17-6.52-0.64c0.87-0.25,2.3-0.18,3.53-0.23c-2.42-0.65-4.42-0.8-6.6-0.91 c-2.18-0.1-4.55-0.27-7.71-0.83c-0.94-0.02-0.79-0.37-0.8-0.68c-3.13-0.37-5.68-0.33-9.13-0.94c2.17-0.39,5.4-0.26,8.98,0.13 c3.58,0.38,7.5,1,11.08,1.26c-1.32-0.3-2.79-0.52-4.34-0.76c-1.55-0.25-3.19-0.47-4.85-0.69c-3.32-0.44-6.75-0.81-9.79-1.35 c3.19,0.04,6.43,0.29,9.47,0.67c3.04,0.37,5.88,0.88,8.29,1.24c0.5-0.54-0.93-0.44-1.69-0.55c2.72,0.08,10.11,1.04,12.1,1.39 c0.5-0.2,1.26-0.33,2.07-0.43c0.81-0.1,1.66-0.16,2.34-0.16c1.49,0.91,7.64,0.94,11.64,1.49c-1.36-0.77-4.59-0.87-7.31-1.15 c-0.12-0.14,1.08-0.21,1.31-0.09c-1.42-0.72-5.22-0.98-9.25-1.28c-4.02-0.34-8.27-0.64-10.56-1.28l-2.81-0.28l-2.8-0.33 c-3.25-0.37-0.39-0.39,1.32-0.04c3.79,0.36,6.61,0.8,9.49,0.97c-1.7-0.21-4.07-0.68-6.48-1.16c-1.21-0.23-2.42-0.51-3.57-0.76 c-1.15-0.25-2.24-0.48-3.18-0.66c-0.45-0.08-6.73-0.68-3.85-0.66c1.72-0.01,3.59,0.3,5.5,0.6c1.91,0.3,3.85,0.61,5.7,0.51 c-1.47-0.25-3.44-1.34-5.12-0.96c-1.65-0.63-3.77-1.11-6.17-1.51c-2.39-0.41-5.06-0.68-7.79-1.06c-2.73-0.36-5.52-0.69-8.18-1.07 c-1.33-0.19-2.62-0.38-3.85-0.61c-1.23-0.25-2.39-0.51-3.47-0.79c-0.8-0.18-4.24-0.59-2.96-0.7c6.77,1.43,14,2.4,21.36,3.43 c-1.13-0.58-3.34-0.88-5.52-1.18c0.03-0.47,4.64,0.06,1.39-0.58c0.96,0.03,2.12,0.12,3.43,0.25c1.31,0.13,2.77,0.24,4.29,0.41 c3.05,0.32,6.39,0.73,9.44,1.12c-1.61-0.52-3.91-1.02-6.53-1.48c-1.31-0.23-2.69-0.45-4.11-0.67c-0.71-0.11-1.42-0.21-2.14-0.32 c-0.71-0.12-1.43-0.24-2.14-0.35c-5.69-0.95-11.08-1.77-13.06-2.47c-1.82-0.23-3.78-0.55-5.16-0.48c-1.5-0.75,1.68-0.13,2.61,0.05 c-1.99-0.97-1.68-0.7-4.15-1.29c1.05-0.58,3.98,1.02,6.79,1.15c-4.15-0.23,0.62,0.68,1.73,0.07c-0.52-0.16-2.37-0.71-4.18-1.07 c0.12-0.41,1.81,0.22,2.57,0.24c-2.94-1.26-10.19-2.09-12.57-2.91c-0.89-0.02-3.3-0.76-1.23-0.41c3.67,0.58,9.87,2.33,11.45,1.75 c-1.79-0.54-3.75-1.06-5.83-1.56c-1.04-0.25-2.1-0.5-3.19-0.73c-1.08-0.24-2.19-0.47-3.29-0.73c-4.43-1.02-9.03-1.92-13.22-2.67 c-2.34-0.37-3.22-1.03-0.38-0.28c0.67,0.08-0.29-0.42,0.5-0.28c4.83,0.67,9.21,1.57,13.86,2.61c2.33,0.49,4.74,0.96,7.31,1.46 c2.57,0.49,5.28,1.02,8.26,1.48c-0.88-0.65-4.52-0.63-5.42-1.29c0.69,0.01,2.94,0.32,5.48,0.69c2.54,0.34,5.37,0.8,7.2,1.26 c-0.98-0.47,0.75-0.07,3.03,0.39c1.14,0.23,2.42,0.48,3.56,0.63c1.14,0.13,2.15,0.19,2.75,0.06c-1.03-0.21-2.2-0.42-3.45-0.69 c-1.25-0.27-2.6-0.54-4-0.78c-2.79-0.49-5.77-0.89-8.6-0.97c-3.82-1.23-8.78-2.63-14.37-3.86c-2.79-0.66-5.73-1.35-8.76-1.96 c-3.03-0.62-6.17-1.15-9.3-1.77c0.11-0.14,0.46-0.1,0.5-0.29c-2.09-0.45-9.54-2.25-4.9-1.49c6.57,1.25,24.75,5.53,33.38,6.65 c-0.13,0.19-0.85-0.01-0.9,0.24c2.25,0.58,2.85,0.11,4.68,0.37c1.07,0.37-1.7,0.01-2.16,0.05c2.41,1.18,5.67,0.67,7.64,0.74 c2.41,0.06,5.79,0.82,8.91,1.27c3.12,0.44,5.96,0.68,7.24-0.11c1.51,1.48,2.99-0.04,5.91,0.71c0.14,0.63-1.95-0.09-2.17,0.32 c-0.13,0.53,2.18-0.02,0.82,0.3c3.39-0.26,6.92,0.13,10.66,0.64c1.87,0.24,3.78,0.53,5.76,0.7c1.97,0.16,4,0.25,6.09,0.18 c-2.19-0.48-5.03-0.77-8.01-1.15c-2.98-0.39-6.09-0.79-8.83-1.34c0.23-0.41,2.09,0.13,2.98,0.1c-1.53-0.59-3.79-0.94-6.27-1.2 c-2.48-0.29-5.18-0.56-7.59-0.9c-0.84-0.1-1.68-0.2-2.53-0.3c-1.04-0.1-0.69-0.32,0.02-0.19c1.4,0.17,2.81,0.34,4.21,0.51 c1.28-0.15,4.28,0.54,6.36,0.35c0.95-0.01,0.56,0.42,1.22,0.51c1.81-0.04,4.04,0.17,6.35,0.43c-0.98-0.66-3.71-0.72-5.87-0.97 c-0.11-0.81,0.89,0.17,2.13,0.02c0.5-0.6-1.28-0.43-2.07-0.59c1.94-0.33,4.01,0.5,5.92,0.39c-3.36-1.15-8.7-0.95-12.63-1.33 c0.83,0.31,2.21,0.53,3.42,0.67c1.21,0.13,2.26,0.17,2.44,0.19c-0.66,0.15-1.54,0.2-2.54,0.14c-1-0.06-2.13-0.2-3.29-0.36 c-2.33-0.33-4.83-0.75-6.82-0.87c0.48-0.39,1.98-0.16,3.41,0.02c-0.13-0.45-2.06-0.33-2.92-0.55c1.79-0.26,4.01-0.07,6.46,0.24 c1.23,0.16,2.51,0.33,3.83,0.5c1.32,0.14,2.69,0.26,4.06,0.32c-4.16-1.07-8.19-0.66-11.29-1.66c-1.39-0.1,2.61-0.08,4.21,0.32 c0.19-0.31-0.29-0.4-0.79-0.49c0.96-0.03,2.11,0.04,3.38,0.17c1.28,0.12,2.68,0.25,4.14,0.43c2.92,0.33,6.06,0.74,8.87,0.92 c-2.71-1.18-8.44-1.3-12.96-1.87c-5.52-0.59-2.56-0.64,1.28-0.06c-2.7-0.56-5.43-1-8.15-1.37c-2.72-0.39-5.44-0.69-8.09-1.18 c1.31-0.65,4.38,0.06,8.01,0.41c-0.72-0.51-2.41-0.7-4.13-0.89c2.89,0.07,6.74,0.58,10.76,1.14c4.03,0.51,8.25,0.99,11.83,1.15 c-4.41-0.55-8.36-1.6-11.69-1.37c-0.38-0.89-2.31,0.01-1.17-0.92c-2.49-0.16-5.21-0.34-8.03-0.52c-1.41-0.09-2.84-0.18-4.28-0.29 c-1.43-0.14-2.87-0.28-4.3-0.44c-2.86-0.31-5.67-0.68-8.29-1.12c-2.62-0.44-5.04-1.07-7.13-1.73c-2.13-0.52,3.19,0.15,3.36,0.18 c2.42,0.39,5.16,0.69,8.06,1.05c2.9,0.36,5.98,0.74,9.11,1.14c3.14,0.33,6.34,0.68,9.49,1.05c1.57,0.19,3.13,0.37,4.65,0.55 c1.53,0.17,3.03,0.33,4.49,0.49c-1.22-0.58-4.31-0.46-6.24-0.84c-0.32-0.24,0.59-0.14,1.76-0.01c1.16,0.13,2.58,0.31,3.27,0.34 c-1.38-0.38-2.83-0.66-4.34-0.97c-1.51-0.3-3.08-0.57-4.71-0.83c-1.63-0.25-3.31-0.5-5.04-0.77c-1.73-0.27-3.51-0.52-5.32-0.91 c0.03-0.29,2.49,0.08,0.47-0.32c2.67-0.05,5.07,0.1,7.63,0.39c2.56,0.27,5.29,0.64,8.64,0.81c-1.08-0.54-3.99-0.54-5.78-0.88 c-3.76-0.53,1.04-0.17,2.51,0.11c2.96,0.44,5.78,0.61,9.2,0.9c3.42,0.26,7.44,0.63,12.86,1.03c-0.14-0.45-2.05-0.24-2.9-0.42 c5.4,0.34,11.53-0.32,17.58,0.29c-0.07,0.83-2.54,0.37-4.21,0.33c4,0.46,9.05,0.88,13.82,0.89c4.78-0.03,9.28-0.4,12.17-1.33 c3.91,0.24,5.81,0.15,10.05,0.27c1.07,0.02,0.51,0.16,0.41,0.4c5-0.24,10.89-0.06,16.68,0.23c5.79,0.26,11.49,0.45,16.07,0.18 c-4.13-0.43-7.12-0.19-11.35-0.55c0.42-0.32,1.94-0.14,2.1-0.59c2.81,0.72,7.12,0.78,11.47,0.75c4.35-0.04,8.73-0.09,11.67,0.56 c-4.1-0.34-6.78-0.26-13.48-0.18c-0.15,0.33,0.33,0.36,0.85,0.37c-3.55,0.56-7.45-0.28-11.36,0.24c1.98,0.57,4.22,0.72,6.53,0.74 c2.31,0.02,4.68-0.08,6.94-0.04c6,0.13,11.45,0.32,18.14,0.23c-0.89-0.28-2.23-0.34-3.81-0.29c4.32-0.5,12.69,0.44,17.3-0.7 c1.65,0.52,5.06,0.44,8.36,0.27c3.3-0.19,6.48-0.46,7.69-0.32c0.48-0.31,1.74-0.31,1.64-0.85c3.55,0.16,9.61-0.14,12.53-0.88 c-2.15-0.18-7.41-0.02-11.72,0.26c3.9-1.08,9.87-1.06,15.78-1.88c-0.11,0.27-1.03,0.23-1.64,0.31c7.52-0.2,16.07-0.41,22.62-1.83 c0.06-0.53-1.52,0.7-1.26-0.24c2.1-0.09,2.91-0.63,4.84-0.78c-0.02,0.36-1.36,0.28-1.57,0.58c2.83-0.28,5.46-0.55,8.02-0.72 c1.27-0.1,2.52-0.2,3.75-0.3c1.23-0.09,2.45-0.18,3.66-0.3c1.21-0.12,2.41-0.24,3.63-0.35c1.21-0.13,2.41-0.31,3.64-0.48 c2.45-0.33,4.92-0.85,7.53-1.45c1.63,0.38,4.72-0.4,6.58-0.23c-1.3,0.51,0.17,0.53-1.56,0.4c-0.56,0.97,0.65,1.6,1.75,2.36 c1.08,0.75,2.07,1.67,0.98,3.33c1.51,0.07,0.86,0.74,2.05,1.24c-2.76,0.72-0.67,2.28-2.67,3.09c0.2,0.18,0.79,0.05,1.31-0.03 c0.52-0.09,0.98-0.13,0.92,0.26c-0.82,0.39,0.14,1.18-0.29,2.28c0.38,0.3,1.23,0.2,2.21,0c-0.01,0.71-1.81,1.16-2.66,1.7 c2.59-0.1,0.9,1.54,3.56,1.66c-0.69,1.8,0.21,2.86,0.66,3.98c0.23,0.56,0.34,1.14,0.08,1.84C319.66,28.7,319.02,29.54,317.71,30.56z M96.89,22.76c-0.14-0.35,0.67-0.43,0.05-0.58c-0.63,0.45-4.34-0.49-4.25-0.03C93.46,22.57,95.46,22.57,96.89,22.76z M98.15,22.88 c-0.87,0.12-4.69-0.43-3.43,0.25C95.34,22.74,97.9,23.48,98.15,22.88z M84.9,27.2c-2.82-0.16-6.47-0.96-8.06-0.95 c-0.12,0.23-0.71,0.31,0.38,0.43c1.87,0.38,3.09,0.45,4.35,0.51c0.63,0.03,1.27,0.05,2,0.1c0.74,0.04,1.57,0.1,2.59,0.22 C88.24,27.66,85.78,27.18,84.9,27.2z M152.15,15.72c-2.05-0.22-4.28,0.49-4.22,0.67C149.59,16.29,151.03,16.08,152.15,15.72z M157.6,16.42c-1.28,0.12-3.61-0.33-4.2,0.1C154.67,16.43,157.01,16.86,157.6,16.42z M158.87,15.46c3.46-0.14,7.37-0.1,8.83-0.68 C164.46,15.16,161.76,14.78,158.87,15.46z M169.37,16.15c-2.02,0.14-5.6-0.45-6.31,0.32C164.08,16.29,171.96,16.53,169.37,16.15z M140.06,13.25c-3.34,0.14-8.76-0.37-8.85,1.37C133.32,13.98,140.23,13.76,140.06,13.25z M64.51,37.53 c1.43,0.19,4.18,0.13,3.96-0.03c-1.05,0-3.1-0.68-3.48-0.29C65.76,37.41,64.78,37.39,64.51,37.53z M58.48,19.11 c1.83,0.5,6.29,1.17,6.38,0.33C63.2,19.67,60.12,18.51,58.48,19.11z M77.3,22.42c0.43-0.36,2.39,0.22,2.6-0.27l-2.53-0.31 C77.5,22.2,76.69,22.27,77.3,22.42z M195.47,15.38c-0.74-0.15-1.32-0.63-1.68,0.03c0.61,0.42,1.02-0.26,1.27,0.17l3.37-0.05 C198.23,15.1,196.35,15.48,195.47,15.38z M69.17,22.4c0.42,0.06,0.84,0.12,1.27,0.17C76.02,23.13,71.43,21.8,69.17,22.4z M61.98,21.56c2.3,0.11,5.93,0.82,6.39,0.34C66.41,21.89,63.46,21.25,61.98,21.56z M311.32,41.16c0.37-0.22,1.15-0.26,2.13-0.35 c0.98-0.09,2.16-0.24,3.32-0.69C316.48,38.73,310.86,40.7,311.32,41.16z M64.03,10.35c-1.54-0.24-2.87-0.33-3.78-0.15 C61.76,10.41,63.51,10.77,64.03,10.35z M6.6,6.86C4.05,6.17,2.82,5.68,0,5.38C2.66,5.97,4.68,7.34,6.6,6.86z M26.99,4.34 C25.14,3.44,21.9,3.86,26.99,4.34L26.99,4.34z M75.74,10.96c-1.96-0.11-4.93-0.84-6.23-0.6C71.45,10.54,74.43,11.24,75.74,10.96z M127.48,13.69c-2.31-0.04-5.2-0.4-5.89,0.42C123.03,13.7,127.27,14.77,127.48,13.69z M37.27,24.13c0.63,0.22,1.79,0.56,2.95,0.8 c1.17,0.23,2.33,0.38,2.98,0.28c-0.54-0.23-1.73-0.52-2.94-0.74C39.06,24.23,37.85,24.06,37.27,24.13z M34.77,32.69 c0.57,0.4,3.66,0.41,4.69,1.09C39.69,33.13,35.39,32.56,34.77,32.69z M5.1,14.44c2.92,0.41,7.54,2.19,7.62,1.33 C10.04,15.68,6.73,14.11,5.1,14.44z M35.07,21.92c1.66,0.05,2.98,1.1,3.79,0.74C38.58,22.31,34.05,21.42,35.07,21.92z M18.99,15.2 c-1.62-0.42-2.99-0.79-4.32-1.08c-0.66-0.14-1.32-0.27-1.99-0.37c-0.66-0.12-1.34-0.22-2.05-0.29c-5.52-1.2,0.08,0.1,2.86,0.9 c1.97,0.54,4.49,1.94,5.37,1.4C16.35,15.16,17.77,15.13,18.99,15.2z" fill="url(#a)"/></svg>