<?xml version="1.0" encoding="UTF-8"?><svg xmlns="http://www.w3.org/2000/svg" xmlns:xlink="http://www.w3.org/1999/xlink" height="61.4" preserveAspectRatio="xMidYMid meet" version="1.0" viewBox="0.0 0.0 246.5 61.4" width="246.5" zoomAndPan="magnify"><linearGradient gradientUnits="userSpaceOnUse" id="a" x1="0" x2="246.582" xlink:actuate="onLoad" xlink:show="other" xlink:type="simple" xmlns:xlink="http://www.w3.org/1999/xlink" y1="30.417" y2="30.417"><stop offset="0" stop-color="#00b7ff"/><stop offset="1" stop-color="#ffffc7"/></linearGradient><path d="M143.61,38.97c-0.46,0.75-1.09-0.02-1.64-0.1C142.29,38.5,142.89,39.15,143.61,38.97z M139.79,38.79 c0.41,0.12,0.69,0.1,1.08-0.1c0.03-0.27-0.34-0.28-0.32-0.52c0.75-0.32,1.48-0.16,2.36-0.78c-1,0.14-2.18,0.54-2.96,0.14 c0.07,0.46-0.4,1.14-0.39,1.56C139.59,38.98,139.53,38.82,139.79,38.79z M139.44,37.99c-0.16,0.01-0.32,0.01-0.28-0.11 c-0.31,0.05-0.76,0.05-0.79,0.21c0.15-0.01,0.31,0.08,0.01,0.14c-0.4,0.06-1,0.04-1.06,0.24C138.15,38.59,139.17,38.44,139.44,37.99 z M122.24,39.38c0.83-0.15,1.07-0.59,1.6-0.88c-0.94,0.01-1.72,0.1-2.15,0.33C122.06,38.92,122.2,39.12,122.24,39.38z M114.67,40.9 c-0.24-0.96,1.48,0,0.83-0.81c-0.38,0.42-1.34-0.22-1.63,0.1C114.11,40.44,113.84,40.93,114.67,40.9z M143.18,37.5 c1.24-0.15,1.1-0.79,0.18-0.85C143.32,37.14,142.66,37.07,143.18,37.5z M130.14,40.61c-0.69-0.22,0.9-0.59,0.76-1.02 c-0.39,0.1-1.4-0.07-1.34,0.22c0.44,0.02-0.01,0.2-0.53,0.17C128.66,40.54,129.9,40.88,130.14,40.61z M150.92,38.47 c-0.2-0.31-0.33-0.67-1.16-0.52c-0.05,0.11-0.2,0.2-0.52,0.21C149.07,38.78,149.97,38.65,150.92,38.47z M161.38,35.35 c-0.14-0.07,0.58-0.14,1.24-0.23c0.66-0.1,1.25-0.22,0.85-0.31c-0.4,0.01-1.33,0.44-1.35,0.13c0.14-0.03,0.28-0.16-0.03-0.14 C162.19,35.01,160.23,35.23,161.38,35.35z M150.54,39.64c-1.05-0.11-0.69-0.43-0.4-0.92c-0.94,0.08-0.89,0.47-1.27,0.73 c-0.27,0.03-0.34-0.07-0.56-0.07C148.55,39.79,149.97,39.75,150.54,39.64z M160.8,36.71c0.5-0.09,0.77-0.63,0.41-0.78 c-0.8,0.58-0.5-0.24-0.87-0.26C159.6,36.25,160.89,36.16,160.8,36.71z M163.25,33.72c-0.67,0.16-0.87,0.45-1.24,0.67 C162.76,34.63,163.11,34.05,163.25,33.72z M114.39,41.45c-0.83-1.13-1.33-1.86-1.36-0.17C113.69,41.23,113.62,41.54,114.39,41.45z M156,35.89c-1.14,0.3-1.49,0.1-1.82,0.55C154.87,36.47,155.71,36.32,156,35.89z M150.79,39.47c0.76-0.18,0.7-0.64,0.96-0.98 l-0.54,0.08c-0.16,0.03-0.31,0.07-0.25,0.18C151.95,38.84,150.22,39.08,150.79,39.47z M59.93,39.12c0.47,0.12,0.83,0.23,1.05,0.4 l0.1-0.4c-0.37-0.09-0.61-0.07-0.84-0.06c0.03-0.22,0.15-0.45-0.43-0.54C59.67,38.75,60.02,38.88,59.93,39.12z M23.01,29.15 c-0.21-0.4-0.44-0.8-1.01-1.18C21.87,28.31,22.25,29.27,23.01,29.15z M25.08,29.29c-0.99-0.14-0.76-0.04-1.54-0.66 c-0.06,0.18-0.24,0.23-0.42,0.27c1.06,0.39,0.98,1,1.8,0.77C24.5,29.43,25.04,29.53,25.08,29.29z M19.79,24.72 c0.08-0.17,0.49,0.09,0.61-0.02c-0.18-0.12-0.24-0.24-0.14-0.37c-0.25-0.12-0.5-0.23-0.75-0.35C19.45,24.23,19.49,24.48,19.79,24.72 z M23.81,28c-0.32-0.37-1.35-0.62-1.85-0.64C22.49,27.66,23.48,28.37,23.81,28z M16.95,26.89c1.17,0.56,1.75,0.73,1.89,0.58 c-0.18,0.17-1.58-1.06-0.28-0.74c-0.52-0.2-0.42-0.4-0.64-0.6c-0.36,0.24-1.06-0.84-1.38-0.34C17.26,26.31,16.42,26.26,16.95,26.89z M20.91,27.65c-0.59-0.32-0.66,0-1.33-0.44c-0.03-0.21-0.21-0.41-0.65-0.61C18.4,27.53,20.27,28.15,20.91,27.65z M19.49,28.08 c-0.49-0.27-0.58-0.07-0.88-0.11c-0.07,0.25-0.02,0.5,0.28,0.74c0.03-0.14,1.21,0.26,0.43-0.26c-0.05,0.07-0.11,0.13-0.31,0.01 C19.09,28.24,19.24,28.1,19.49,28.08z M103.36,38.95c-0.67-0.06-0.86,0.17-1.1,0.36c0.53-0.01,0.52,0.21,0.79,0.32 C103.29,39.47,103.43,39.27,103.36,38.95z M109.79,40.64c0.85-0.04,1.05,0.22,1.62,0.32c-0.22-0.45,0.44-0.42,0.56-0.68 c-1.7,0.04-0.7-1.21-1.85-1.43c0.24,0.53-0.88,0.11-0.55,0.26C110.06,39.58,109.26,40.05,109.79,40.64z M104.67,39.71 c0.88-0.31,1.91,0.08,3.24,0.17c-0.47-0.2-0.42-1.33-0.76-1.15l-0.03,0.55c-0.66-0.22-1.33,0.24-1.35-0.07 c-0.05-0.26,0.32-0.29,0.3-0.54c-1.72-0.32-0.42,1.11-1.64,0.33c0.06,0.37-1.05,0.05-0.84,0.51 C104.11,39.51,104.19,39.7,104.67,39.71z M95.59,40.84c0.69,0.08,0.77-0.06,1.89,0.29c0.37-0.15,0.12-0.72-0.47-0.87 C98.05,41.24,94.52,39.95,95.59,40.84z M29.72,28.21c-0.32,0.29-1.59-0.99-1.8-0.71C27.83,27.8,30.45,28.99,29.72,28.21z M26.83,28.7c-0.69-0.18-1.5-0.5-1.95-0.39C25.4,28.85,26.74,29.22,26.83,28.7z M95.47,42.22c0.59-0.23,0.06-0.59-0.48-0.73 C94.91,41.82,94.87,42.15,95.47,42.22z M74.26,39.26c-0.46-0.04-0.97,0.01-1.1,0.06c0.63,0.12,1.25,0.26,1.89,0.36 C75.13,39.4,74.72,39.3,74.26,39.26z M172.5,32.09c-0.59,0.19-1.01,0.22-1.34,0.18C171.14,32.79,172.75,32.73,172.5,32.09z M239.8,4.36c-0.5,0.54-1.04,1.08-0.72,1.37C239.61,5.18,239.87,4.72,239.8,4.36z M237.71,5.76c0.3-0.55,1.04-0.65,0.85-0.88 c-0.63,0.39-1.12,0.28-1.78,0.63C237.01,5.84,237.47,5.43,237.71,5.76z M234.07,4.9c0.34-0.23,0.68-0.45,1.01-0.67 c0.33-0.22,0.65-0.43,0.89-0.69c0.24-0.26,0.43-0.56,0.53-0.91c-1.01,0.56-3.01,2.39-3.42,3.08C233.38,5.39,233.72,5.13,234.07,4.9z M230.79,7.75c0.28-0.54,1.37-0.75,1.59-1.44c-0.27,0.01-0.78,0.41-1.17,0.79C230.83,7.49,230.53,7.83,230.79,7.75z M241.41,5.45 c-0.31-0.28,0.5-1.66-0.34-1.3c0.35,0.68,0.06,0.61-0.22,0.47C240.72,5.32,241.8,5.66,241.41,5.45z M244.68,0 C243.26,1.09,244.27,1.55,244.68,0L244.68,0z M243.6,4.86c0.13-0.14,0.26-0.29,0.38-0.43c0.47-0.56,0.82-1.08,0.73-1.32 c-0.35,0.62-0.79,1.13-1.21,1.6c-0.44,0.45-0.85,0.84-1.1,1.27c0.23-0.21,0.5-0.46,0.78-0.72C243.32,5.14,243.46,5,243.6,4.86z M13.42,22.62c-0.06,0.26-0.41,0.13-0.49,0.37c0.59,0.23,0.92,0.13,1.42,0.26C13.87,23.03,13.87,22.83,13.42,22.62z M217.9,12.68 c0.25-0.25,0.79-1.47-0.22-0.97C218.62,11.77,217.18,12.71,217.9,12.68z M213.7,9.4c0.62-0.18,0.8-0.99,0.42-0.82 c0.33,0.26-1.09,0.43-0.77,0.69C213.54,9.2,213.66,9.23,213.7,9.4z M162.91,36.19c-0.18,0.32,0.4,0.79,0.61,0.29 c-0.35,0.07-0.41-0.3-0.08-0.41c0.13,0.13,1.16,0.29,1.35-0.14c-0.6,0.17-1.01,0.18-1.11-0.05c0.56-0.21,0.92,0.21,0.76-0.3 c-0.36,0.08-0.59,0.06-0.82,0.03C163.88,35.94,163.13,35.99,162.91,36.19z M219.21,12.45c-0.4-0.42,0.68-1.44-0.21-1.45 C218.82,11.4,218.51,12.44,219.21,12.45z M224.73,6.96c-0.17-0.38,1.7-0.89,1.11-1.25c-0.18,0.24-0.63,0.52-0.97,0.75 C224.54,6.69,224.35,6.88,224.73,6.96z M225.19,7.65c-1.3,0.77-2.18,2.03-3.05,2.38c1.34-0.09,2.36-1.37,3.23-1.67 C224.99,8.14,225.45,7.88,225.19,7.65z M219.32,10.04c0.14-0.23,0.29-0.47,0.44-0.72c0.43,0.26-0.88,1.1-0.02,0.96 c0.23-0.5,0.6-1,0.97-1.5c0.18-0.25,0.37-0.5,0.53-0.75c0.15-0.25,0.29-0.5,0.38-0.75c-0.78,0.61-0.92,1.42-2.06,1.68 C219.3,9.25,218.54,10.14,219.32,10.04z M203.98,20.12c1.07-0.4,1.1-0.88,1.45-1.34c-1.02,0.05-1.38,0.51-1.96,0.81 C203.99,19.34,203.76,19.99,203.98,20.12z M171.39,32.07l0.52-0.13c0.54-0.18-0.18-0.58-0.42-0.61 C171.68,31.63,171.09,31.74,171.39,32.07z M169.49,33.38c-0.2,0.08-0.52,0.13-0.49,0.26c1.04-0.03,0.42-0.49,1.25-0.58 c-0.19-0.27-0.57-0.37-1.17-0.28c0.07,0.23,0.03,0.43-0.14,0.6C169.15,33.36,169.46,33.25,169.49,33.38z M174.27,29.25 c-1.3,0.46-2.08,0.55-3.39,0.68C171.31,30.23,174,29.83,174.27,29.25z M244.9,8.17c0.1,0.18-0.13,0.51-0.06,0.71 c0.33-0.27,0.62-0.41,0.95-0.69C245.56,7.93,245.31,7.71,244.9,8.17z M165.31,37.09c0.51-0.08,0.56-0.28,1.04-0.36 c0.1-0.45-0.38-0.44-0.44-0.75c-0.61,0.09-0.99,0.24-1,0.49c0.21-0.01,0.52-0.11,0.56,0.02C165.37,36.8,164.72,36.93,165.31,37.09z M165.98,34.98c-0.78-0.35-0.18-0.94-1.04-1.05l0.08,0.41c-0.27,0.06-0.34-0.04-0.56-0.02C164.46,34.94,165.28,34.92,165.98,34.98z M199.62,19.22c0.14,0.47,1.02,0.05,1.47,0.14C200.99,18.86,200.24,19.12,199.62,19.22z M166.89,35.35 c-0.45,0.18-1.59,0.16-1.56,0.47c0.46,0,1.37,0.46,1.91-0.12C166.23,35.94,167.12,35.61,166.89,35.35z M198.83,15.07 c0.13-0.35,0.97-0.63,0.69-1.03C198.83,14.27,198.4,15.14,198.83,15.07z M200.86,17.37c-0.45,0.38-1.03,0.63-1.56,0.9 c-0.54,0.26-1.04,0.53-1.35,0.99c0.98-0.5,1.35-0.8,2.39-1.08C199.96,17.86,200.86,17.66,200.86,17.37z M200.28,20.89 c-0.62,0.25-0.89,0.55-0.79,0.89c0.48-0.22,0.56-0.01,0.85-0.02C200.6,21.33,199.5,21.59,200.28,20.89z M188.75,24.01 c-0.55,0.06-0.8,0.75-0.37,0.56c-0.06-0.26,0.89-0.13,1.5-0.51c0.25-0.37,0.27-0.78,0.44-1.17c-1.01,0.84-2.27,0.57-3.45,1.31 C187.3,24.37,188.6,23.57,188.75,24.01z M186.61,25.14C183.79,25.74,183.31,26.62,186.61,25.14L186.61,25.14z M192.95,24.04 c-0.21-0.38-1.57-0.47-2.19,0.16C191.32,24.33,192.4,23.91,192.95,24.04z M197.21,21.01c0.67-0.13,2.02-0.06,2.57-0.67 C199,20.6,197.53,20.66,197.21,21.01z M177.17,28.76c0.85-0.02,1.08-0.39,1.72-0.76C178,28.45,177.47,28.19,177.17,28.76z M229.1,38.27c0.43-0.36,1.37-0.76,1.54-1.11C230.08,37.19,228.82,37.91,229.1,38.27z M230.81,36.14c-0.74,0.38-1.47,0.76-2.21,1.14 C229.03,37.96,230.12,36.58,230.81,36.14z M197.46,51.37c0.34,0.43,3.44-0.85,4.02-1.22C200.37,50.29,198.2,51.44,197.46,51.37z M242.71,25.16c-0.55,0.52-0.7,0.87,0.18,0.59c-0.07-0.41,0.45-0.77,0.98-1.13c0.53-0.36,1.07-0.74,1.04-1.12 c-0.36,0.21-0.77,0.52-1.16,0.81C243.36,24.6,242.99,24.9,242.71,25.16z M228.69,36.77c0.7-0.4,1.46-0.61,2.16-0.83 c0.71-0.23,1.36-0.49,1.84-0.96c-0.68,0.38-1.44,0.62-2.15,0.85C229.82,36.06,229.17,36.31,228.69,36.77z M148.94,40 c0.03,0,0.07,0,0.1,0C149.01,40,148.98,40,148.94,40z M183.62,57.47c0.94-0.19,3.27-0.16,2.83-1.06 C185.1,56.93,183.94,56.99,183.62,57.47z M243.21,22.93c-0.54,0.75-1.46,1.57-1.58,2.22C242.17,24.4,243.39,23.5,243.21,22.93z M105.2,56.18c0.36,0.21,1.25,0.2,2.02,0.24C107.59,55.99,105.28,55.99,105.2,56.18z M108.35,56.9c-0.89,0.17-1.51-0.04-2.31-0.25 c0,0.09-0.01,0.18-0.01,0.28c0.01,0.08,0.04,0.17,0.28,0.15c0-0.08,0.24-0.14,0.29,0.02c-0.18,0-0.35,0-0.3,0.12 c0.88,0.15,1.06-0.08,1.75-0.05c0,0.08,0.23,0.16,0.29,0.01C107.99,57.13,108.17,57.01,108.35,56.9z M103.07,57.73 c0.89-0.14,1.04,0.12,2.33,0.12c-0.3-0.35-0.13-1.16-0.85-0.6c0.08-0.26-0.31-0.32-0.26-0.57c0.64-0.06,0.9,0.44,0.88-0.09 l-0.87-0.05C103.38,57.27,103.91,57.04,103.07,57.73z M157.23,59.71c-0.38,0.03-1.5-0.18-1.49,0.08c0.69,0.05,1.24,0.97,2.16,0.37 C157.15,60.13,156.26,60.1,157.23,59.71z M151.87,59.94c0.96,0.19,2.26,0.11,3.32,0.21C154.81,59.7,152.42,59.81,151.87,59.94z M143.59,60.48c-0.09,0.44,0.67,0.39,1.52,0.27C145.11,60.37,144.34,60.43,143.59,60.48z M12.94,24.85 c-0.59-0.25-0.93-0.51-0.88-0.75c0.03-0.16,0.22-0.33-0.07-0.5l-0.31,0.62C12.15,24.55,12.55,25.19,12.94,24.85z M193.36,25.21 c-0.56,0.01-1.11,0.26-1.26,0.43c0.31-0.06,0.87,0.47,1.1-0.08c-0.15,0.05-0.31,0.08-0.3-0.04 C193.09,25.42,193.4,25.34,193.36,25.21z M67.16,52.19c-0.93-0.17-0.74,0.49-2.08,0.01c0.5,0.53,0.01,0.57,0.97,1.04 c0.3-0.64,1.03,0.4,2.01,0.4c0.08-0.09,0.27-0.11,0.6-0.02c0.51-0.43-0.74-0.42-0.44-0.79c-0.76-0.25-0.63,0.15-1.2,0.04 C67.28,52.47,66.57,52.35,67.16,52.19z M178.33,31.02c-0.53-0.01-1.27,0.17-1.89,0.23C176.43,31.66,178.32,31.18,178.33,31.02z M181.33,29.77c-0.35-0.52-3.27,0.32-3.66,0.86c0.99-0.24,0.69,0.7,1.77,0.37c-1.3-0.5,1.58-0.4,0.93-0.68 c-0.58,0.2-0.98,0.24-1.11,0.02C180.31,30.19,180.68,29.63,181.33,29.77z M103.51,55.26c0.08,0.46,1.65,0.31,2.58,0.41 c-0.75-0.37-2.22-1.14-3.12-1c0.7,0.15-1.3,0.74,0.23,0.98C103.85,55.5,102.85,55.31,103.51,55.26z M243.65,15.17 c0.13-0.36,1.06-1.2,1.72-1.79c0.65-0.6,1.04-0.95,0.15-0.21c-0.42-0.27-0.82,0.3-1.28,0.85c-0.1-0.1,0.06-0.29,0.03-0.41 l-0.65,0.63C244.29,14.32,243.2,15.01,243.65,15.17z M208.66,15.44c-0.16,0.02-0.35,0.09-0.56,0.21 C208.28,15.59,208.47,15.52,208.66,15.44z M208.54,18.63c0.41-0.54-0.63-0.36-1.06-0.43C207.65,18.57,207.8,18.98,208.54,18.63z M193.82,26.51c-0.02-0.45-0.69-0.23-1.41,0.04C192.46,26.98,193.34,26.54,193.82,26.51z M223.41,40.54c-1.1,0.53-2.2,1.06-2.89,1.6 C221.46,41.84,222.84,41.32,223.41,40.54z M117.63,57.34c-1.03,0.05-1.49,0.01-1.74,0.14c-0.05,0.71,2.73,0.5,2.62,0.27 c-0.51-0.08-1.71,0.17-1.75-0.13C117.22,57.6,117.77,57.63,117.63,57.34z M246.38,15.8c-0.3,0.45-0.69,0.91-1.15,1.33 c-0.46,0.42-0.98,0.82-1.5,1.21c-0.52,0.4-1.06,0.74-1.56,1.08c-0.5,0.34-0.95,0.67-1.32,0.97c1.1-0.11,2.81-1.36,4.09-1.95 c-0.31,0.41-0.64,0.67-1.01,0.97c-0.38,0.29-0.81,0.61-1.33,1.18c0.36,0.67,1.47-0.04,2.43-0.57c-0.34,0.44-0.83,0.71-1.31,1.03 c-0.48,0.32-0.97,0.7-1.35,1.31c-0.58-0.24,0.49-0.92-0.1-1.16c-0.55,0.26-1.24,0.65-1.79,1.11c-0.55,0.46-0.99,0.97-1.07,1.36 c0.61,0.41,0.96,0,0.3,0.97c0.54-0.03,0.92-0.91,1.1-0.1c0.61-0.45,0.62-0.75,1.46-1.26c-0.45,0.56-1.08,1.15-1.78,1.69 c-0.7,0.53-1.46,1.07-2.15,1.57c-1.39,0.98-2.49,1.92-2.33,2.83c-0.65,0.42-1.28,0.8-1.68,0.86c-0.54,0.31-0.15,0.52-0.94,0.86 c0.13,0.32,0.64,0.13,0.89,0.29c0.39-0.43,0.91-0.87,1.5-1.3c0.59-0.43,1.26-0.83,1.93-1.27c0.67-0.43,1.35-0.84,1.96-1.27 c0.61-0.44,1.16-0.86,1.58-1.28c0.85-0.48-0.08,0.42,0.32,0.45c-1.65,0.79-4.41,3.27-4.92,3.08c-0.4,0.52-1.21,1.1-1.61,1.62 c-1.02,0.36-2.43,0.94-2.11,0.1c-2.2,2.49-4.75,4.86-6.85,6.85c-1.06,0.41-2.53,1.32-2.69,0.67c-1.73,1.17-2.5,0.59-4.67,1.94 c0.6,0.32,1.94-0.19,2.19,0.53c-0.25,0.29-0.9,0.57-1.58,0.86c1.44,0.06,3.17-0.2,4.99-0.56c0.91-0.19,1.85-0.43,2.78-0.64 c0.93-0.23,1.87-0.47,2.78-0.67c-0.82,0.37-1.68,0.69-2.56,0.96c-0.87,0.26-1.77,0.48-2.66,0.68c-1.78,0.37-3.58,0.68-5.28,1.12 c0.51,0.05,1.06,0.06,1.65,0.02c-1.89,1.45-2.74,0.53-3.96,0.7c-0.48,0.06-2.29,0.87-3.15,1c-1.03,0.16-1.21-0.47-2.65,0.64 c0.12,0.48,0.49,0.69,1.19,0.56c-0.76,0.1-0.79,0.63-2.07,1.29c-0.77-0.6-2.75,0.04-4.6,0.55c-0.01-0.17,0.47-0.3,0.79-0.44 c-1.14-0.06-2.66,0.54-4.24,1.2c-1.58,0.66-3.2,1.44-4.48,1.89c0.02-0.13,0.24-0.23,0.2-0.36c-0.57,0.32-1.2,0.63-1.8,0.94 c-0.61,0.3-1.2,0.6-1.68,0.91c-0.51-0.05-1.2,0.07-1.83,0.13c-0.04,0.26,0.3,0.18,0.65,0.09c0.13,0.27-0.99,0.37-1.39,0.57 c-0.14-0.19,0.2-0.31,0.16-0.48c-0.9,0.36-1.35,0.32-2.04,0.48c-0.53,0.22,0.16,0.61-1.03,0.75c0.65-0.52-0.03-0.44-1.02-0.22 c-0.99,0.23-2.28,0.63-2.83,0.85c0.09,0.14,0.56-0.03,0.9-0.1c-0.42,0.4-2.7,0.98-2.66,0.44c-0.25,0.09-0.78,0.27-1.44,0.48 c-0.66,0.21-1.46,0.42-2.22,0.64c-1.53,0.42-2.9,0.81-2.92,0.81c-0.32,0.02-0.48-0.18-0.68-0.26c-0.32,0.32-1.73,0.42-1.64,0.82 c-0.41-0.23-3.54,0.45-3.27,0.41c-1.46,0.2-3.1,0.5-4.83,0.75c-1.74,0.24-3.55,0.49-5.34,0.7c-0.45,0.05-0.89,0.1-1.33,0.15 c-0.44,0.04-0.88,0.07-1.31,0.1c-0.86,0.06-1.7,0.11-2.51,0.13c-1.6,0.05-3.05,0.04-4.24-0.13c-0.34,0.06-0.22,0.28-0.24,0.45 c-2.49-0.06-7.21,0.28-9.45,0.64c-0.94-0.27-2.06-0.37-2.98-0.28c-0.26,0.44,0.67,0.19,1.2,0.17c0.24,0.75-1.91-0.11-1.79-0.12 c-0.79,0.09-2.48,1.26-3.81,0.41c2.66,0.11,2.04-0.42,4.39-0.6c-0.08-0.63-1.73,0.32-1.5-0.28c-0.93,0-1.02,0.31-2.05,0.27 c-0.16-0.29,0.4-0.29,0.86-0.33c-1.2-0.21-2.79-0.22-4.34-0.12c-0.78,0.04-1.55,0.13-2.26,0.2c-0.71,0.07-1.37,0.15-1.91,0.25 c0.03-0.99-3.27-0.21-5.59-0.38c0.12-0.17,0.37-0.28,0.87-0.29c-0.39-0.34-1.3-0.24-2.05-0.11c-0.33-0.43-0.14-0.36,0.28-0.69 c0.52,0.1,0.05,0.25,0.01,0.41c0.24-0.14,0.77-0.14,1.31-0.15c0.54-0.02,1.08-0.03,1.31-0.18c-0.22-0.31-1.66,0.01-1.47-0.51 c-0.58,0.57-1.68-0.18-2.33-0.4c0.01,0.14,0.01,0.55,0.01,0.69c-0.07,0.32-1.28,0.09-1.46,0.01c-0.01,0.25,1.47,0.47,1.46,0.27 c0.62,0.21-0.3,0.86-1.16,0.83c0.79-0.61-0.4-0.25-1.46-0.27c-0.48-0.27,0.03-0.18,0-0.55c-1.49-0.17-0.31,0.4-0.88,0.42 c-1.15,0.23-0.1-0.6-0.87-0.55c0.41-0.07,2.29-0.55,3.5-0.15c1.02-0.84-0.82-0.57-0.01-1.38c-0.4-0.14-2.53,0.09-3.48,0.15 c0.07-0.15,0.58-0.1,0.58-0.28c-0.43-0.18-1.25-0.04-1.74-0.01c0.13,0.13,0.25,0.25,0.58,0.29c-0.27,0.37-0.54-0.38-1.45-0.17 c0.16-0.11,0.31-0.22,0.3-0.41c-0.84,0.06-0.5,0.09-1.45,0.24c0.16-0.3-0.55-0.21-0.57-0.43c-0.39,0.13-0.88,0.21-1.17,0.38 c-0.57-0.15-1.01-0.37-1.43-0.59c-0.12,0.45-0.43,0.38-1.45,0.24c0.08-0.15,0.58-0.08,0.59-0.26c-0.4-0.22-1.59,0.03-2.3-0.24 c0.01-0.33,0.52-0.38,0.33-0.81c0.51,0.05,0.98,0.1,1.42,0.14c0.44,0.03,0.86,0.05,1.26,0.07c0.8,0.04,1.51,0.06,2.21,0.08 c-1.1-0.5-2.88-0.64-4-0.81c0.02-0.13,0.36-0.09,0.58-0.11c-0.12-0.13-0.24-0.26-0.56-0.31c-0.39,0.11-0.39,0.44-0.88,0.5 c-1.86-0.42-3.57-0.17-4.86-0.67c-0.4,0.11-0.6,0.34-0.9,0.51c-0.28-0.11-0.27-0.34-0.84-0.35c0.02-0.13,0.36-0.08,0.58-0.09 c-0.2-0.15-0.51-0.25-0.84-0.34c-0.01,0.26-2.18,0.37-2-0.16c0.82-0.05,0.72,0.25,1.42,0.25c-0.76-0.47-0.48-0.52-1.07-1.06 c-0.84,0.05-0.34,0.18-0.33,0.53c-1.5-0.14-1.75-0.75-2.78-1.06c-0.78,0.37-1.15-0.18-2.84-0.28c0.63,0.44,1.77,0.71,3.38,0.74 c-0.07,0.34-0.1,0.66,0.21,0.85c0.56-0.11,1.81-0.38,1.71,0.28c-1.68-0.37-3.31-0.08-4.4-0.48c0.57,0.25,0.3,0.8,1.49,0.8 c-0.19-0.26,1.5-0.34,1.71,0.28c0.68,0.11-0.11-0.64,0.89-0.34c-0.15,0.28,0.17,0.38,0.24,0.57c1.99,0.02,3.82,0.13,4.88,0.5 c-0.96,0.8,1,0.49,1.09,1.16c-0.38,0-1.04-0.52-1.15-0.2c-0.49-0.15-0.72-0.52-0.25-0.7c-0.99,0.01-1.61-0.15-2.29-0.29 c-0.63,0.27,0.1,0.5-0.36,0.94c-0.64-0.11-0.07-0.69-0.21-0.99c-0.15-0.3-1.85-0.32-1.74,0c0.02,0.26,0.97,0.16,1.13,0.37 c-0.26,0.18-0.94,0.12-1.46,0.16c0.37-0.15,0.13-0.21,0.03-0.41c-1.03-0.17-0.07,0.82-1.21,0.59c0.28,0.21,0.44,0.45,0.82,0.62 c0.02,0.3-1.03-0.02-1.46,0.02c1.29-0.33-0.91-0.65,0.11-1.24c-1.34-0.18-1.18,0.52-0.96,0.89c-0.78-0.19-1.19-0.53-1.96-0.75 c0.31-0.19,0.33-0.52,0.89-0.18c-0.06-0.29-0.75-0.36-0.81-0.65c-0.93,0.43-2.15-0.35-3.49,0.03c0.52,0.11,2.03,0.78,2.29,0.25 c0.25,0,0.27,0.08,0.28,0.17c-0.07,0.11,0.1,0.14,0.27,0.17c-0.41,0.39-1.34-0.45-1.47,0.11c0.41,0.26,1.27,0.35,1.08,0.81 c-0.94-0.02-1.33-0.24-2.01-0.36c1.88-0.1-1.25-0.89-1.58-1.43c-0.51,0.23-1.33,0.25-1.27,0.83c0.03,0.17,0.51,0.17,0.85,0.23 c0.34,0.01,0.27-0.22,0.34-0.38c3.1,0.56-1.51,0.87-1.02,1.14c-0.85,0.29-0.73-0.89-2.24-0.85c-0.04-0.12,0.13-0.11,0.31-0.1 c0.95,0.13,0.78-0.48,1.52-0.49c-0.58-0.49-1.59-0.16-1.63-0.92c-0.53-0.05-0.24,0.44-0.65,0.47c-0.91-0.06-1.14-0.34-1.38-0.61 c-0.46,0.19-1.51,0-1.53,0.48c-0.73-0.12-0.33-0.59-1.06-0.71c-0.61-0.11-0.2,0.47-0.39,0.64c0,0.26,0.94,0.23,0.8,0.53 c0.3-0.05,0.34-0.27,0.9-0.15c-0.19,0.18-0.5,0.27-0.92,0.29c0.24,0.37,1.31-0.09,1.09,0.57c-0.89-0.14-1.61-0.16-2.06-0.01 c0.68,0.32,1.77,0.42,2.04,0.15c1.27,0.7,2.18,0.19,4.04,0.57l-0.05,0.41c2.93,0.12,4.39-0.64,7.83,0.75 c0.71,0.04,0.1-0.44-0.25-0.44c0.45-0.16,2.34,0.39,3.2,0.13c0.24,0.26,0.67,0.46,0.81,0.76c1.43-0.23,1.89,0.59,3.16,0.81 c0.88-0.13,1.41-0.56,1.51-0.74c-0.23-0.23-0.75-0.22-1.23-0.19c-0.49,0.02-0.95,0.05-1.08-0.1c0.12-0.15,0.53-0.13,0.99-0.07 c0.47,0.05,0.99,0.11,1.34,0.09c0.39,0.24,0.2,0.72,0.82,0.87c-0.39,0.33-1.5,0.29-2.51,0.27c-1.01-0.03-1.93-0.01-1.95,0.53 c-0.33-0.2-1.1-0.15-1.47,0.02c-0.11-0.17-0.4-0.62-1.4-0.81c-0.75-0.03,0.38,0.27-0.05,0.55c-0.18-0.08-1.02-0.52-2.04-0.17 c-1.18-1.08-3.79-1.24-5.28-0.31c-0.28-0.3-0.49-0.62-1.7-0.61c-0.61-0.03-0.15,0.6-0.67,0.61c-0.39-0.05-0.77-0.11-1.16-0.16 c-0.12-0.62-0.82-0.66-0.75-1.08c-1.15,0.21-2.02,0.45-3.05,0.51c-1.03,0.07-2.24-0.03-4.05-0.59c1.04,0.08,1.75,0.18,2.69-0.12 c-0.99,0.32-3.67-1.16-4.67-0.49c-0.82-0.22,0.48-0.14,0.36-0.36c-0.23-0.15-0.11-0.4-0.51-0.51c-0.97,1.26-3.28-0.73-4.19,0.1 c-0.67-0.4-1.15-0.11-1.99-0.54c-0.57,0.44,1.23,0.29,1.07,0.64c-0.3,0.38-2.42-0.04-2.94-0.31c0.31-0.19,1.11-0.01,1.27-0.31 c-0.7-0.49-2.17-0.21-2.51-0.92c-0.72-0.17-0.95,0.03-1.24,0.17c-0.54-0.14-0.1-0.49-0.77-0.6c-0.97-0.13-1.08,0.42-2.41,0.01 c-0.5-0.38,0.03-0.51,0.19-0.81c0.78,0.74,2.37,0.47,3.11,0.86c0.59-0.12-0.26-0.47,0.43-0.61c0.33,0.3,1.61,0.37,1.95,0.67 c0.64,0.46-0.87-0.37-1.18-0.1c0.73,0.58,2.12,0.23,2.84,0.71c0.27-0.61-0.32-0.22-0.78-0.58c1-0.29,2.13,0.2,3.23,0.22 c-0.53,0.27-0.13,0.47,0.52,0.61c0.65,0.14,1.55,0.16,2.01,0.13c-0.05-0.2-0.7-0.24-1.12-0.33c0.1-0.07,0.81-0.4,0.1-0.54 c0.19-0.35,0.9,0.15,0.53,0.37c0.38,0.06,0.77,0.13,1.15,0.2c-1.31-0.91-1.5-0.89-3.6-1.36c0.17-0.08,0.34-0.16,0.36-0.35 c1.11,0.51,2.1,0.14,3.47,0.35c-0.01,0.13,0.33,0.17,0.55,0.23c-0.04,0.23-0.08,0.45-0.12,0.68c0.96,0.02,0.67-0.24,1.43,0.24 c0.33-0.39-0.37-0.5-0.77-0.69c0.9-0.18,2.52,0.15,4.05,0.4c0.31-0.4-0.38-0.49-0.47-0.78c-0.41,0.34-1.1,0-1.09-0.47 c-0.95,0.12-1.39,0.36-2-0.34c0.22,0.76-2.13-0.19-3.21-0.13c-0.23,0.01-0.28,0.36-0.36,0.36c-0.06,0-1.34-0.87-0.88-0.03 c-0.36-0.16-0.47-0.39-0.46-0.65c-0.65,0.17-1.08-0.38-1.65-0.61c0.18,0.42-1.15,0.18-0.96,0.37c-0.42,0.12-0.75-0.51-0.46-0.65 c-0.39-0.1-1.12-0.35-1.3-0.82c-0.49,0.4-1.59-0.17-2.26-0.48c-0.43-0.04,0.08,0.2-0.09,0.4c-0.61-0.07-0.49-0.32-0.47-0.53 c-0.65,0.15-2.48-0.87-2.66-0.05c-0.84-0.62-2.56-1.04-2.84-1.79c-1.64,0.01-0.72-0.31-2.47-0.79c1.04,0.58,0.14,0.32-0.95-0.05 c0.39,0.29,0.73,0.97-0.1,0.63c0.08,0.45,0.63,0.03,1.12,0.29c0.05,0.31-0.28,0.31-0.42,0.46c-0.79-0.48-1.4-1-1.67-1.58 c0.61,0.57,0.56,0.4,0.84,0.11c-0.8-0.28-1.65-0.59-1.89-0.67c-0.31-0.05-0.26,0.22-0.63,0.12c-0.03,0.23,1.23,0.16,1.01,0.69 c-1.13-0.26-1.98-0.94-2.07-0.12c-1.25-0.63,0.23-0.62,0.78-0.65c-0.79-0.53-0.91,0.03-2.21-0.64c-0.2,0.29,1.28,0.3,0.72,0.64 c-0.7,0.12-0.66-0.54-1.27-0.8c-2.54-0.47-3.1-0.87-4.54-0.9c-1.04-0.8-1.58-0.63-3.44-1.55c-0.57,0.4-1.33-0.05-2.64-0.28 c0.73-0.39-0.82-0.88-2.05-1.14c0.27,0.43-0.87,0.24-0.18,0.52c-0.33,0.26-1.76-0.6-1.82-0.07c-0.58-0.93,1.17,0.05,1.64-0.29 c0.34-0.33-0.66-0.52-0.32-0.85c-0.26,0-1.06,0.3-0.5,0.55c-0.31,0.22-1.54-0.5-2.22-0.65c0.19-0.27,0.83-0.04,1.14,0.26 c-0.08-0.69-1.91-1.34-3.44-1.53c1.26,0.4,0.65,0.89,2.12,0.91c-0.49,0.22-0.81,0.1-1.23-0.14c-0.42-0.23-0.93-0.57-1.8-0.83 c0.12-0.11,0.57,0.12,0.63-0.05c0.06-0.36-0.53,0-1.07-0.42c-0.6,0.23,0.8,0.92,0.02,0.75c-1-0.64,0.01-1.42-0.75-2.07 c1.4,0.66,2.28,0.62,3.22,1.24c-1.52-0.91-1.12-1.18-2.75-1.65c0.05,0.2,0.24,0.4,0.7,0.57c-0.86-0.32-1.64-0.29-2.24-0.58 c-0.23-0.62,0.94,0.28,0.95-0.07c0.01-0.21-0.78-0.36-0.7-0.57c-0.57-0.12-1.39,0.13-0.52,0.54c-0.91-0.25-1.19-0.95-1.24-1.53 c-1.28-0.67-1.99-0.64-2.86-1.33c-0.51-0.08-0.75,0.15-0.85,0.54c-0.95-0.52-1.04-0.05-1.54-0.06c-1.83-0.82,1.33,0.32,0.91-0.66 c-0.14-0.28-0.77-0.55-1.2-0.82c0.18-0.23,1.17,0.46,1.42,0.31c0.12-0.41-1.28-1.54-0.09-1.24c-0.91-0.71-1.05-1.05-2.13-1.52 c-0.36,0.39,0.63,0.71,0.45,1.09c-0.37-0.17-0.73-0.34-0.84-0.21c0.16-0.62-2.49-1.23-2.05-0.32c-0.39-0.66-0.88-1.32-1.29-1.97 c-0.68-0.18-0.6,0.57-1.58,0.02c0.21-0.04,0.82-0.18-0.08-0.5c0.6-0.22,0.64-0.37,0.93-0.63c-0.94-0.37-1.56-0.35-2.1-0.22 c-0.52-0.42-0.99-0.95-1.53-0.75c-0.46-0.34,0.1-0.17,0.8,0.02c0.71,0.18,1.56,0.36,1.66,0.09c0.72,0.68,2.09,0.56,2.82,1.32 c-0.13,0.59-0.77-0.16-0.95,0.02c-0.17,0.44,1.12,0.51,0.23,0.87c0.34,0.09,0.6,0.09,0.69-0.14c0.91,0.61-0.28,0.49,0.11,1.12 c0.63,0.18,0.4-0.68,1.32-0.15c0.21-0.25-0.68-0.49-0.6-0.74c0.15-0.45,0.89,0.45,1.46,0.22c-0.23-0.82-1.08-0.26-1.74-0.96 c0.22-0.05,0.65,0.15,0.69-0.14c0.6,0.52,1.68,0.53,1.95,1.19c0.08-0.54,0.9,0.46,1.35,0.43c0.56,0.3-0.34,0.68,0.5,0.97 c0.22,0.07,0.32-0.01,0.57,0.1c-0.35-0.84,0.75-0.99,2.04-0.47c-0.06-0.55-1.09-0.33-0.51-0.97c0.32,0.46,0.83,0.62,1.42,0.75 c0.3,0.07,0.62,0.12,0.95,0.21c0.34,0.08,0.69,0.17,1.04,0.33c-0.87-0.57-0.35-0.87-1.14-1.65c0.83,0.29,0.5,0.73,1.24,0.66 c-0.52-0.42-1.61-1.3-0.61-1.44c0.84,0.49,1.59,0.94,1.81,1.47c0.03,0.58-0.82,0.2-1.09,0.46c1.19,0.94,0.62,1.64,2.73,2.26 c0.5-0.68-1.74-0.49-1.31-1.26c0.6-0.01,0.32,0.14,1.04,0.41c-0.19-0.53,0.21-0.34,0.35-0.9c-0.67-0.3-1.14-0.4-1.19-0.02 c-0.14,0.36,0.83-0.03,0.42,0.46c-0.56-0.16-0.66-0.36-0.99-0.54c0.22-0.26,1.15-0.69,0.93-0.82c0.46-0.3,0.69,0.41,0.37,0.59 c1.22,0.47,1.99,0.16,1.98,1.08c0.37-0.03,0.97,0.22,1.61,0.48c-0.43,0.66,1.18,0.76,1.51,1.57c-0.78-0.07-1.76-0.86-2.47-0.61 c0.95,0.36,2.16,0.78,3.44,1.25c-0.29-0.68-1-1.3-1.37-1.96c-0.26-0.09-0.26,0.09-0.36,0.17c-0.53-0.19-0.21-0.47-0.96-0.64 c0.16-0.07,0.32-0.15,0.62-0.07c0.01-0.5-1.67-0.89-2.29-1.04c0.49-0.41-0.76-0.68-0.78-1.05c1.29-0.16,2.94,1.81,4.98,1.75 c0.77,0.38,0.47,0.27,1.31,0.47c-0.35,0.29,0.25,0.47,0.03,0.74c-0.9-0.28-1.58-0.33-2.67-0.81c0.87,0.52,1.62,1.06,2.39,1.59 c0.37,0.09,0.34-0.25,0.45-0.43c0.99,0.42,1.45,0.57,1.93,0.73c0.24,0.08,0.48,0.15,0.79,0.26c0.32,0.1,0.7,0.22,1.23,0.4 c-0.58-1-3.33-1.3-3.06-2.23c1.99,0.58,4.51,1.95,5.96,1.44c0.36,0.24-0.14,0.17,0.09,0.61c1.14,0.43,0.99-0.12,1.89,0.47 c-0.35,0.48-0.65,0.37-0.64,1.1c-0.31-0.16-0.49-0.35-0.41-0.57c-0.22-0.05-0.3,0.05-0.57-0.04c-0.37,0.35,0.82,0.47,0.63,0.79 c0.48-0.11,1.24-0.44,1.99,0.2c0.26,0.07,0.25-0.1,0.35-0.19c0.04-0.37-0.52,0.06-1.07-0.32c-0.02-0.74,1.89,0.51,1-0.41 c-0.08-0.42,1.23,0.46,1.14,0.05c0.68,0.21,0.23,0.63,0.91,0.84c0.77-0.49,1.66,0.56,3.08,0.33c-0.14-0.19-0.57-0.32-0.42-0.55 c0.14,0.12,1.17,0.68,1.33,0.39c1.22,1.31,4.6,1.78,5.05,2.62c0.48,0.09,0.67-0.07,0.67-0.39c-0.25-0.52,0.29,0.48,0.4,0.67 c0.14-0.56,0.44-0.43,0.83-0.21c0.4,0.21,0.9,0.51,1.43,0.33c-0.15,0.21-1.81,0.51-0.62,1.41c0.53,0.06,0.58-0.27,1.43,0.04 c-0.17-0.15-0.34-0.47,0.09-0.4c-0.2-0.39-1.27-0.01-0.99-0.65c0.91,0.32,1.22,0.15,1.45-0.09c0.39,0.15-0.15,0.15-0.09,0.4 c0.36-0.13,0.86-0.15,0.97-0.48c0.77,0.3-0.26,0.4-0.15,0.67l0.54,0.13c0.38-0.44,0.15-0.12,0.94-0.35 c0.97,0.43,0.92,0.54,1.89,0.43l-0.12,0.54c2.2,0.45,2.13,0.03,4.09,0.82c0.56-0.07-0.59-0.41,0.13-0.68 c0.26,0.06,0.18,0.21,0.22,0.33c0.67,0.31,1.48,0.58,2.33,0.75c0.86,0.15,1.75,0.21,2.59,0.15c0.09,0.62,2.47,0.55,3.52,0.88 c-0.2,0.11-0.65,0.03-0.61,0.32c-0.98-0.37-1.58-0.28-3-0.65c0.41,1.25,2.63,0.37,3.78,1.06c0.35,0.03,0.32-0.22,0.04-0.27 c0.08-0.15,0.29-0.03,0.28,0.05c0.23,0.06,0.27-0.01,0.29-0.09c0,0.21,0.58,0.56,0.68,1.07c-1.02-0.51-1.14-0.56-2.97-0.9 c-0.12,0.21,0.22,0.28,0.2,0.45c0.27,0.04,0.24-0.13,0.32-0.23c0.66,0.19,1.4,0.36,1.29,0.78c-0.28-0.05-0.55-0.09-0.83-0.14 c-0.2,0.28,0.5,0.28,0.49,0.5c1.09-0.19,2.37,0,2.88-0.28c0.3,0.08,0.15,0.3,0.52,0.35c0.42,0-0.08-0.19,0.06-0.41 c0.77,0.27,1.29,0.61,1.84,0.96c1.18-0.32-1.01-0.62-0.7-1.07c-0.75,0-2.71-0.18-2.7-0.8c2.22,0.53,3.63,0.5,5.5,0.91 c0.17-0.45-1.19-0.39-0.72-0.94c1.38,0.46,1.82,0.24,2.14-0.01c0.33-0.25,0.55-0.56,1.54-0.39c0.1-0.21-0.23-0.26-0.23-0.44 c-0.68-0.1-1.14-0.06-1.4,0.12c0.11-0.35,3.38-0.47,2.66-1.37c0.21,0.12,0.72,0.3,0.82,0.09c0.39,0.1-0.04,0.12-0.03,0.27 c0.07,0.23,0.5-0.07,0.53,0.2c0.19-0.32,0.77-0.61,0.71-1.45c0.64-0.03,1.09,0.86,0.22,0.58c0.08,0.19,0.46,0.27,0.5,0.47 c0.58-0.01,0.81-0.25,1.67-0.12c-0.54,0.22,0.14,0.26-0.06,0.69c0.67-0.07,0.78-0.49,1.96-0.25c0.07-0.19,0.52-0.27,0.61-0.78 c0.68,0.46,1.44,0.48,2.33,0.4c0.45-0.04,0.93-0.1,1.45-0.17c0.52-0.07,1.09-0.12,1.7-0.12c-0.14-0.12-0.27-0.24-0.25-0.43 c-0.69,0.11-1.83,0.39-2.18-0.13c-0.5-0.02-0.2,0.45-0.59,0.51c-0.85-0.14-1.09,0.21-1.64-0.13c0.09-0.24,0.5-0.28,1.11-0.19 c0.16-0.42-0.35-0.57-0.48-0.87c-0.43,0.02-0.26,0.41-1.11,0.19c-0.71-0.51,0.42-0.81,0.9-1.03c0.6,0.07-0.38,0.32-0.05,0.69 c0.96,0.15,1.41,0,1.66-0.28c0.25,0.1,0.38,0.42,0.53,0.18c0.66,0.23-0.58,0.5-0.86,0.62c1.81,0.84,1.18-1.24,3.04-0.5 c0.42-0.5-0.73-0.3-0.5-0.72c0.27,0.01,0.22-0.16,0.29-0.26c1.14,0.13,2.6,0.32,3.79,0.2c0.48,0.13,0.03,0.25-0.02,0.41 c0.92,0.15,0.37-0.54,1.37-0.34c0.49,0.69-0.49,0.88-0.33,1.5c-1.22,0.01-1.69,0.44-2.22,0.85c-0.68-0.06-0.06-0.47,0.03-0.55 c-0.32,0.1-0.74,0.14-1.37,0.07c0.43,0.69,0,0.32-0.59,0.66c0.19,0.69,0.98-0.27,1.36,0.21c0.02,0.53-0.23,0.04-0.83,0.09 c0.1,0.32,0.57,0.47,0.79,0.73c0.57,0,0.11-0.6,0.58-0.66c0.85-0.06,0.31,0.49,1.35,0.35c-0.19-0.33-1.06-0.7,0.3-0.67 c-0.09,0.36-0.12,0.69,0.8,0.6c-0.02-0.35-0.48-0.51-0.79-0.73c0.62-0.22,1.05,0.79,2.16,0.77c0.14-0.29-0.38-0.27-0.81-0.3 c-0.12-0.44,0.41-0.53,0.58-0.81c-0.16-0.29-1.38-0.07-1.07-0.58c1.65,0.39,1.17-0.05,1.93-0.64c0.86,0.38,0.08,1.03-0.32,1.51 c0.24,0.34,1.54,0.1,1.65-0.1c0.45-0.05-0.04,0.51-0.29,0.55c0.4,0.33,0.67,0.23,1.37,0.17c-0.45-0.24,0.19-1-0.8-0.99 c-0.05-0.12,0.11-0.13,0.28-0.13c0.23,0.03,0.26-0.05,0.28-0.13c0.27,0.12,0.34,0.86,0.8,1.26c0.44-0.22-0.2-0.56,1.1-0.52 c-0.1,0.18-0.48,0.2-0.55,0.4c0.46,0.25,0.92-0.08,1.92,0.03c0.09-0.46-0.35-1.2,0.83-1.11c0.62,0.31-0.19,0.61-0.55,0.83 c0.34,0.42,0.95-0.15,1.64-0.01c-1.29-0.63,1.09-0.09-0.27-0.69c0.6-0.39,2.64-0.06,2.72-0.7c0.47,0.12,0.71,0.48,0.28,0.69 c1.33,0.16,0.91-0.55,1.9-0.56c0.1-0.69-1.11-0.67,0.25-0.97c-0.27-0.32-1.19,0.29-1.09-0.4c0.49-0.43,0.93,0.45,1.35-0.03 c-0.14,0.45,1.05,1.04-0.25,0.98c0.18,0.28,1.37-0.01,1.1,0.51c0.22-0.08,0.44-0.16,0.81-0.16c-0.57-0.37,0.59-0.19-0.02-0.69 c0.29,0.02,0.19,0.27,0.55,0.26c0.81-0.12-0.27-0.29-0.02-0.55c0.39,0.14,0.67,0.13,0.81-0.16c1,0.18-0.62,0.23-0.25,0.56 c0.24,0.32,0.65-0.4,1.62-0.19c-0.27,0.19-0.25,0.52-0.52,0.71c1.57-0.04,1.53-0.21,1.6-0.74c0.16,0.26,1.16,0.75,0.85,0.79 c0.08,0.58-0.42,0.02-0.82,0.03c-0.82,0.2,0.22,0.52,0.3,0.68c0.67-0.47,1.56,0.17,2.43-0.55c-0.07,0.33-0.5,0.6,0.05,0.83 c0.56-0.12,0.87-0.34,1.34-0.5c-0.11-0.48-0.74,0.06-0.84-0.23c0.01-0.41,0.9-0.17,1.89-0.39c0.06-0.23-0.27-0.22-0.3-0.4 c-0.88,0.51-1.18-0.16-2.16,0.41c-0.94-0.61,2.71-0.5,1.02-1.17c1-0.21,0.46,0.49,1.38,0.33c0.73-0.17-0.84-0.26-0.04-0.55 c0.62-0.08,1.04-0.04,1.36,0.05c-0.46,0.29-0.69,0.68-1.3,0.91c0.16,0.19,0.45,0.31,0.84,0.36c1.18-0.1-0.37-0.63,0.78-0.6 c-0.09,0.58,0.74,0.63,1.68,0.56c-0.16-0.3-0.59-0.65-0.08-0.96c0.46,0.33-0.07,0.69,0.63,1.05c-0.57-0.01-0.72,0.16-1.08,0.24 c0.82,0.03,1.51-0.18,1.41,0.43c0.72-0.02,0.88-0.27,0.77-0.62c-0.06-0.16-0.51-0.07-0.83-0.06c-0.17-0.42,0.65-0.45,1.04-0.65 c-1.83,0.01,1.43-1.74,2.33-1.32c-1.03,0.14-1.37,0.48-2.37,0.91c0.1,0.32,1.2-0.02,1.07-0.24c0.68,0.2,1.2,0.51,1.46,0.98 c0.66,0,0.56-0.3,1.34-0.26l-0.07-0.69c1.72,0.2,0.47-0.18,1.62-0.19c-0.08,0,1.14-0.5,1-0.81c0.25,0.03,0.5,0.06,0.57,0.21 c0.59-0.26,0.55-0.76,1.24-0.98c0.1-0.51-1.6,0.19-1.4-0.39c1.79-0.4,2.54,0.64,0.94,1c0.3,0.7,0.58,1.11,0.47,1.61 c0.58,0.17,0.52-0.17,1.1,0.01c0.19-0.12,0.78-0.68,0.81-0.1c0.29-0.06,0.25-0.24,0.06-0.27c1.48,0.03,2.49-0.06,4.2-0.76 c0-0.3-0.97,0.08-1.37,0.07c0.53-0.33,0.4-0.54,1.31-0.47c-0.52-0.28,0.23-0.52-0.38-0.64c0.44-0.45,0.7,0.5,0.93,0.7 c0.49-0.05,0.54-0.25,1.06-0.3c-0.27-0.26-0.77-0.36-0.69-0.87c-0.53,0.08-1.07,0.16-1.61,0.24c0.9-0.22,0.38-0.91,1.48-1.06 c-0.06,0.45,0.42,0.51,0.91,0.56c1.1-0.66,1.24-1.65,2.92-2.17c-0.44,0.82,0.06,0.37,1.39,0.17c-0.58,0.25-1.27,0.86-2.07,0.65 c-0.16,0.25-0.15,0.55-0.41,0.83c-0.13,0.14-0.33,0.28-0.66,0.4c-0.33,0.12-0.78,0.22-1.42,0.29c0.07,0.15,0.5,0.04,0.83,0.02 c0.07,0.24-0.29,0.34-0.18,0.59c0.84-0.15,0.84-0.58,1.81-0.72c0.11-0.2,0.89-0.83,0.42-0.78c0.18-0.32,1.04,0.12,1.4,0.17 c-0.79,0.58-2.54,0.93-1.9,1.74c-0.73,0.19-0.34-0.46-0.9-0.4c-0.42,0.62-0.04,0.8,0.67,0.75c0.71-0.05,1.77-0.31,2.69-0.51 c-0.55,0-0.07-0.77-0.68-0.72c0.59-0.13,1.15-0.57,2.38-0.57c0.27,0.67,1.03,0.9-0.02,1.41c0.68-0.1,0.8-0.36,1.29-0.51 c-0.87-0.71,1.41-0.05,0.38-0.91c0.94-0.32,0.39,0.53,0.94,0.51c0.73-0.46,2.34-0.31,2.85-1.02c0.32,0.32,1.13,0.25,1.75,0.34 c0.26-0.16-0.06-0.41,0.39-0.79c0.31-0.04,0.18,0.1,0.03,0.13c-0.14,0.55,1.46-0.05,1.62-0.22c0-0.38-0.95,0.6-0.86-0.08 c0.37-0.16,1.4-0.17,1.29-0.45c-0.27,0.11-1.16-0.23-1.32,0.31c-0.36-0.2-0.16-0.31,0.24-0.43c0.4-0.12,1.02-0.24,1.52-0.41 c-0.25-0.4,0.03-0.67,0.04-1c-1.85-0.17-1.05,0.92-2.54,1.02c0.16,0.59-0.52,0.96-1.09,1.36l-0.12-0.54 c0.57-0.06,0.68-0.24,1.04-0.36c-0.95,0.08-1.17-0.43-2.27-0.23c0.22-0.65,1.35-0.29,1.65-0.06c1.1-0.53-0.25-0.97,1.35-1.41 c0.21,0.27-0.46,0.3-0.44,0.52c1.19-0.04,2.07-0.67,3.38-0.95c0.28-0.1,0.11-0.31,0.46-0.4c-0.85,0.01-1.07,0.2-2.1,0.51 c0.24-0.28,0.78-0.49,0.63-0.86c0.4,0.31,1.98,0.25,2.09-0.51c0.29,0.07,0.58,0.49-0.13,0.6c0.37,0.11,0.96,0.04,1.64-0.11 c0.03-0.72-1.01,0.49-0.89-0.21c0.97-0.51,0.87,0.07,1.83-0.44c0.13,0.2-0.19,0.29-0.16,0.47c0.85-0.33,1.84-1.12,2.79-1.04 c0.34,0.36-0.6,0.46-0.64,0.75c0.17,0.04,1.17,0.11,0.4,0.46c0.28,0.14,0.74,0.11,1.38-0.09c0.32-0.23-0.17-0.19,0.41-0.54 c1.23-0.16-0.34,0.51,0.45,0.59c1.31,0.3,2.09-0.64,3.35-1.1c-0.7-0.2-1.2,0.17-2.23,0.07c0.11-0.15,0.21-0.29,0.15-0.47 c0.75-0.24,0.89,0.08,1.63-0.19c0.2-0.08,0.65-0.68,0.14-0.48c-0.56-0.13,1.03-0.32,0.38,0.32c0.19-0.13,0.38-0.27,0.73-0.37 c-0.72-0.23,0.36-0.52-0.16-0.53c0.43-0.36,2.9-0.9,2.22-0.1c0.41-0.42,0.6-0.69,1.47-0.74c-0.58,0.46-0.08,0.39,0.74,0.14 c0.82-0.27,1.96-0.73,2.67-0.99c-0.17-0.06-0.34-0.12-0.39-0.31c1.43-0.03,3.98-1.74,2.53-1.73c0.12-0.19,0.54-0.33,0.37-0.56 c0.55-0.08,1.15,0.06,1.56-0.41c-0.05-0.37-1.01,0.26-0.94-0.24c0.39,0.06,1.13-0.28,1.8-0.53c0.06-0.24,0.19-0.25,0.31-0.71 c-2.31,0.55-3.93,1.21-5.96,1.53c-0.66,0.37,0.48,0.22-0.08,0.61c-0.74,0.36-0.96,0.18-1.56,0.39c0.57-0.01,0.79,0.35,1.27,0.44 c0.43-0.23,1.03-0.43,1.18-0.69c0.44,0.08,0.8,0.24,1.45,0.09c-0.28,0.37-1.62,0.59-1.35,1.04c-0.63,0.12-1.36,0.32-2.08,0.56 c-0.36,0.12-0.71,0.26-1.05,0.39c-0.34,0.13-0.66,0.26-0.95,0.4c0.24,0.13,0.89-0.1,1.45-0.31c0.56-0.2,1.06-0.33,1.02,0.09 c-0.51-0.03-0.62,0.08-0.42,0.44c-0.59-0.67-3.23,1-3.34,0.18c-1.23,0.44-2.4,0.9-3.52,1.37c-1.12,0.47-2.21,0.88-3.26,1.34 c0.52-0.83,1.94-1.3,3.3-1.79c1.36-0.49,2.68-0.91,3.02-1.5c1.68-0.55,2.65-0.73,3.62-1c0.07-0.32-0.39-0.3-0.91-0.15 c-0.52,0.14-1.09,0.38-1.21,0.55c-1.18-0.17,0.93-0.77,1.45-0.75c0-0.24-0.31-0.14-0.38-0.31c-1.68,0.79-2.66,0.76-4.85,1.5 c0.52,0.41,2.53-0.65,3.02-0.2c-1.39,0.32-1.97,0.45-3.88,1.05c-0.69-0.57-2.59,0.31-3.31,0.08c-1.43,0.89-4.57,2.02-1.51,0.56 c-1.22,0.07-3.17,0.81-3.78,0.29c0.12-0.22,0.49-0.38,0.97-0.52c0.01,0.05-0.02,0.08-0.08,0.12c1.01-0.31,2.61-0.47,4.06-0.68 c0.83-0.12,1.61-0.27,2.19-0.49c0.58-0.21,0.96-0.53,1.01-0.93c1,0.09,1.21-0.79,2.76-0.99c-0.53,0.52,0.37,0.51,1.18,0.22 c0.27-0.12,0.09-0.31,0.42-0.42c-0.28-0.08-0.56,0.18-1.1,0.05c0.13-0.39,1.42-0.5,1.57-0.34c0.45-0.31,1.2-0.74,2.04-1.03 c0.84-0.29,1.78-0.44,2.58-0.22c0.64-0.45,2.38-0.77,2.91-0.56c1.52-0.81-0.45-0.39,1.51-1.3c-0.59,0.01-1.25-0.02-0.48-0.56 c-0.31-0.08-0.76-0.01-1.13-0.02c-0.05-0.23,1.08-0.25,1.73-0.65c0.24,0.52,2.56,0.49,2.38,0.29c0.54,0.05,0.92,0.4,0.3,0.77 c0.94-0.17,2.12-0.31,2.83-0.8c-0.04,0.2-0.21,0.39-0.64,0.56c0.27,0.25,1.05-0.1,1.64-0.22c0.03-0.47-0.78,0.03-0.75-0.44 c3.65-1.48,4.81-1.88,7.37-3.12c-0.7-0.22-0.11-0.23,0.32-0.6c-0.44-0.24-0.35-0.4,0.2-0.85c0.01-0.3-1.29,0.09-1.27,0.42 c-0.81-0.13,0.09-1.01-0.26-1.24c1.15-0.06,1.07-0.96,0.28-0.84c1.03-0.42,2.09-1.05,3.09-1.88c2.17-0.42-0.91,2.16,1.53,1.41 c0.33-0.1,0.54-0.97,0.77-0.21c1.11-1.08,1.62-0.78,2.31-1.75c0.28,0.35,0.31,1.08,0.81,1.6c-0.44,0.2-0.82,0.3-1.06,0.21 c-0.28,0.17-0.12,0.52,0.18,0.37c-0.29,0.45-1.36,0.24-2.42,1.02c0.62,0.25,4.59-0.96,3.39-1.97c0.75,0.1,1.06-0.43,1.24-0.95 c0.3,0.03,1.29,0.09,1.48-0.47c0.28,0.03,1.02,0.48,1.32-0.24c0.18,0.08,0.24,0.54,1.3-0.27c0.06,0.12-0.22,0.25-0.37,0.37 c0.1,0.07,0.29-0.01,0.36,0.11c0.42-0.37,0.61-0.74,0.24-1.09c1.53-0.91,1.72-1.93,3.37-2.07c0.15-0.13,0.13-0.25,0.33-0.38 c-0.74,0.19-1.4,0.26-1.82-0.14c1.2-0.04,1.31-0.75,2.58-1.72c0.09,0.23,0.84,0.42,0.82-0.06c0.18,0.09,0.48,0.89,1.33,0.22 c-0.55,1.46,1.3,0.51,1.96,0.6c0.34-0.41,0.42-0.79,1.14-1.27c-0.39,0.9,0.15,0.41,0.86-0.38c0.35-0.4,0.75-0.85,1.12-1.23 c0.36-0.39,0.68-0.71,0.93-0.8c-0.05,0.56-0.53,1.24-1.06,1.88c-0.26,0.33-0.51,0.65-0.7,0.97c-0.2,0.31-0.35,0.6-0.38,0.88 c-0.57,0.23-0.9,0.6-1.28,0.99c-0.38,0.39-0.77,0.83-1.4,1.24c0.15,0.54,1.12-0.72,1.21-0.04c0.37-0.29,0.66-0.54,0.91-0.77 c0.24-0.24,0.44-0.46,0.64-0.68c0.4-0.44,0.82-0.87,1.5-1.53c-0.62,0.05-0.65,0.18-1.2,0.48c-0.06-0.29,0.34-0.58,0.8-0.89 c0.46-0.31,1-0.62,1.12-0.97c0.28,0.19-0.41,0.59-0.26,0.79c0.48-0.02,0.38-0.98,0.96-1.46c0.09,0.27,0.03,0.57-0.12,0.89 c-0.15,0.33-0.42,0.66-0.74,1.01c-0.32,0.35-0.67,0.73-1.02,1.1c-0.37,0.37-0.72,0.76-1,1.16c0.48,0.08,0.99-0.15,1.54-0.39 c0.53-0.25,1.08-0.53,1.68-0.51c0.13-0.2,0.3-0.37,0.48-0.53c0.18-0.17,0.36-0.32,0.56-0.46c0.4-0.28,0.82-0.52,1.19-0.72 c0.15,0.62-0.41,0.34-0.92,0.88c0.37,0.16,1.01-0.49,1.32-0.12c-0.45,0.46-0.4,0.74-0.94,0.9c-0.08-0.15,0.26-0.41,0.47-0.64 c-0.31-0.24-0.73-0.11-1.31,0.49c-0.48,0.46,0.42-0.06,0.37,0.41c-0.46,0.05-0.94,0.16-1.43,0.34c-0.09,0.17-0.26,0.57-0.5,0.88 c-0.25,0.3-0.55,0.5-0.88,0.28c-0.35,0.27-0.46,0.5-0.43,0.7c0.77-0.01,1.63-0.51,2.47-1.14c0.43-0.31,0.88-0.63,1.31-0.95 c0.43-0.31,0.88-0.59,1.35-0.78c0.16-0.37,0.26-0.66,0.24-0.88c-0.02-0.22-0.15-0.36-0.47-0.45c0.79-0.92,1.42-1.2,1.84-0.75 c-0.33,0.44-0.54,0.44-0.82,0.66c0.33,0.11,0.74-0.06,1.15-0.27c0.42-0.2,0.81-0.45,1.18-0.46c-0.1,0.24-0.4,0.96-0.62,0.51 c-0.41,0.64,0.46,0.46,0.69,0.26c-0.11-0.68,0.66-0.39,1.39-1.64c0.5,0.13,0.27,0.6,0.3,0.94c-0.62,0.48-1.04,0.98-1.43,1.66 c-0.22-0.09,0-0.35-0.12-0.48c-0.58,0.91-0.47,1.56-0.71,2.36c0.03,0.02,0.31-0.28,0.69-0.72c0.19-0.22,0.4-0.47,0.62-0.74 c0.22-0.26,0.42-0.56,0.63-0.83c0.41-0.54,0.79-1.03,1-1.27c0.2-0.25,0.26-0.23,0.04,0.24c-0.14,0.46-0.84,1.17-0.77,1.54 c-0.43,0.46-0.78,0.85-1.09,1.23c-0.31,0.39-0.6,0.74-0.91,1.13l0.29,0.29c0.57-0.57,0.05-0.73,0.97-1.42 c-0.31,0.42-0.35,0.77-0.45,1.1c-0.09,0.33-0.23,0.64-0.74,0.91c-0.01,0.3,0.32,0.11,0.63-0.17c0.3-0.3,0.57-0.69,0.47-0.75 c0.31-0.01,0.78-0.52,1-0.25c-0.16,0.55-0.86,0.56-0.3,0.92c-0.47,0.64-0.59,0.21-0.9,0.34c-0.24,0.3-0.16,0.49-0.43,0.8 c0.23-0.03,0.58-0.36,0.71-0.11c-0.31,0.23-0.5,0.15-0.82,0.41c0.02,0.39-0.73,1.03-0.37,1.31c0.39-0.13,0.84-0.49,1.37-1.05 c0.13-0.14,0.27-0.3,0.42-0.47c0.14-0.18,0.28-0.37,0.44-0.56c0.3-0.4,0.63-0.86,1-1.36c0.02,0.62-0.1,1.29-0.12,1.93 c0.27,0.21,0.71-0.71,0.52-0.75c0.35-0.28,0.05,0.21,0.3,0.28c-0.57,0.74-0.79,0.49-1.35,1.23c0.11-0.37-0.01-0.38-0.41,0.02 c-0.08-0.14,0.3-0.47,0.53-0.74c-0.1-0.22-0.37,0.04-0.5-0.07c-0.91,1.39-1.5,2.67-2.11,3.88c0.37,0.08,1.55-0.07,0.73,0.83 c0.33,0.08,1.19-1,1.3-0.4c-0.31,0.71-2.33,1.46-1.39,0.3c-0.15-0.19-0.41-0.12-0.74,0.09c-0.22,0.36-0.2,0.69-0.66,1.11 c0.41-0.26,0.75-0.37,0.84-0.27c0.09,0.1-0.07,0.41-0.73,0.89c0.13,0.31,0.37,0.38,0.68,0.34C243.67,17.52,245.2,17.01,246.38,15.8z M174.63,29.58c0.03-0.01,0.06-0.02,0.08-0.03C174.69,29.56,174.66,29.57,174.63,29.58z M29.61,38.55c0.78,0.45-0.66-0.02-0.68,0.18 c0.72,0.4,0.76,0.09,1.39,0.4C30.65,38.95,29.84,38.27,29.61,38.55z M31.44,33.78c0.08-0.25,0.31-0.19,0.57,0.08l0.2-0.52 c-0.64-0.27-1.25-0.51-1.62-0.49C30.41,33.2,31.2,33.47,31.44,33.78z M24.11,31.58c0.98,0.15,2.17,0.46,1.82,0.03 c0.26,0.1,0.52,0.21,0.78,0.31c-0.87-0.05,0.52,1.1,1.16,0.9c-0.26-0.1-0.53-0.21-0.79-0.31c0.17-0.3,0.08-0.58-0.27-0.85 c-0.2,0.3-0.38-0.34-1.04-0.42c-0.06,0.24-0.38,0.19-0.88-0.08c-0.12,0.17-0.1,0.51-0.47,0.4C24.26,31.5,24.11,31.45,24.11,31.58z M22.33,32.17c0.35,0.15,0.33-0.12,0.63-0.03c0.26,0.11,0.26,0.23,0.47,0.35c0.41-0.37-1.84-1.15-1.83-0.79 C21.93,31.85,21.89,32.02,22.33,32.17z M23.79,33.09c-0.52-0.22-1.05-0.45-1.57-0.67c0.02,0.47-0.46,0.35-0.59,0.65 c1.08,0.24-0.19,0.59,0.89,0.83c0.35-0.13-0.61-0.76,0.22-0.51c0.41,0.31,0.23,0.65,0.84,0.96C24.13,33.91,22.78,33.18,23.79,33.09z M30.76,36.34c-0.67-1.22-1.42-0.27-2.45-1.56c-0.1,0.14-0.1,0.38-0.42,0.28c-1.11-1.06-2.63-1.03-3.85-1.85 c-0.5,0.44,0.86,1.17-0.22,1.26c0.89,0.34,2.93,0.97,1.79,0.14c0.27,0.11,0.36,0.02,0.58,0.08c0.56,0.33,0.38,0.72,1.12,1.03 C28.04,35.35,29.38,35.97,30.76,36.34z M32.32,38.69c0,0.35-0.6,0.1-0.51,0.55C32.76,39.72,33.12,38.99,32.32,38.69z M33.54,38.69 c-1.27-0.6-2.35-0.85-3.06-0.83C31.75,38.49,32.83,38.74,33.54,38.69z M37.62,34.87C35.57,34.18,37.14,35.8,37.62,34.87L37.62,34.87 z M40.49,36.02c-0.08-0.38-0.44-0.58-0.89-0.72c-0.44-0.15-0.98-0.24-1.4-0.37c0.2,0.1,0.27,0.22,0.17,0.35l1.06,0.38L40.49,36.02z M42.34,34.88c0.11-0.18,0.68,0.09,1.1,0.21c-0.67,0.09,0.01,0.42-0.26,0.79c0.4,0.11,0.96,0.37,1.1,0.21 c-1.36-0.32-0.32-0.41-0.09-0.61c-0.79-0.3-0.58-0.75-1.42-1.04C42.76,34.63,41.57,34.49,42.34,34.88z M43.51,36.71 c-0.53-0.22-0.41-0.53-0.94-0.74c0.05,0.46,0.1,0.31-0.22,0.66C42.86,36.77,43.27,36.83,43.51,36.71z M47.59,37.71 c-0.83-0.72-3.01-1.06-3.47-1.09c0.51,0.18-0.62,0.36,0.37,0.7c0.29-0.76,0.77,0.23,1.37,0.3C45.46,36.6,48.53,38.31,47.59,37.71z M48.94,37.1c0.55,0.39,2.54,0.97,3.21,0.94c0.2-0.26-0.59-0.97-0.95-0.71C51.34,38.21,49.57,36.78,48.94,37.1z M50.36,38.24 c-1.12-0.22-1.83-0.69-1.96-0.29C48.24,37.95,50.45,38.73,50.36,38.24z M52.77,38.94c-0.5-0.22-1.42-1-1.8-0.82 c0.82,0.26-0.98,0.27-0.15,0.53C50.85,38.43,52.64,39.5,52.77,38.94z M57.43,39.89c-0.58-0.33-1.13-0.74-1.62-0.42 c-0.46-0.39-0.04-0.59,0.45-0.6c-0.36-0.09-0.72-0.19-1.08-0.28c-0.13,0.24,0.22,0.37,0.12,0.6c-0.49-0.05-1.54-0.58-1.65-0.29 C54.66,39.02,56.62,40.22,57.43,39.89z M60.27,41.19c-0.47-0.48-0.26-1.12-1.66-1.42c-0.03,0.19-0.2,0.26-0.37,0.33 c0.61,0.21,1.04,0.25,1.38,0.22C59.55,40.67,59.16,41.11,60.27,41.19z M64.59,48.98c-0.47-0.11-0.93-0.21-1.4-0.32 c-0.09,0.19-0.01,0.52-0.4,0.47c0.15-0.45-0.95-0.21-1-0.8c-1-0.18-0.78,0.21-1.71-0.25c-0.94,0.04,0.84,0.67-0.16,0.67 c0.02-0.08-0.19-0.21-0.28-0.06c0.82,0.61,1.47,0.11,2.06,0.05c0.39,0.59,2.29,0.64,2.75,0.91C63.27,49.05,64.14,49.12,64.59,48.98z M65.9,41.64c-0.42-0.34-1.64-0.53-1.93-0.3C65.06,41.52,65.32,41.94,65.9,41.64z M75.98,43.9c0.23-0.5-1.64-0.37-1.56-0.82 C74.12,43.59,75.23,43.69,75.98,43.9z M76.62,45.13c0.05,1.05-1.73-0.74-1.76,0.26c1.03,0.02,1.75,0.37,2.52,0.29 C77.48,45.39,77.23,45.2,76.62,45.13z M89.4,56.83c0.03-0.08,0.06-0.16,0.31-0.11c0.05,0.11-0.02,0.27,0.26,0.31 c-0.08-0.4,1.04,0.46,1.17-0.01C90.74,56.86,88.47,56.27,89.4,56.83z M79.53,55.82c0.23,0.11,1.82,0.2,2.09-0.12 C81.1,55.85,79.51,55.31,79.53,55.82z M84.58,46.91c-0.76-0.75-2.01-0.97-3.22-0.96c-1.21,0.02-2.37,0.19-2.95,0.32 c0.98,0.1,1.48,0.18,1.98,0.29c0.5,0.1,0.98,0.24,1.89,0.45c0.4-0.03,0.12-0.52,0.64-0.47C83.17,46.51,83.96,47.18,84.58,46.91z M88.23,44.9c-0.42-0.02-1.01-0.17-1.12,0c0.78,0.09,0.59,0.49,1.33,0.58C88.53,45.23,88.16,45.14,88.23,44.9z M96.28,55.16 c0.18-0.34,0.54-0.49-0.53-0.6C95.58,54.9,95.21,55.06,96.28,55.16z M105.49,44.87c0.76-0.06-0.23,0.64,0.53,0.58 c-0.13-0.33,1.42-0.4,0.58-0.66c-0.07,0.15-0.31,0.2-0.56,0.25C106.13,44.81,105.68,44.64,105.49,44.87z M105.69,41.01 c0.05-0.37,1.51-0.55,0.31-0.81C105.8,40.33,104.91,40.77,105.69,41.01z M104.04,41.2c0.05,0.46,1.36,0.54,1.63,0.23 C105.35,41.24,104.71,41.21,104.04,41.2z M105.9,53.59c-1.13,0.11-2.53-0.08-3.8-0.25c-1.27-0.15-2.42-0.36-3.06-0.18 c0.57,0.3,1.66,0.5,2.95,0.62c1.29,0.13,2.79,0.25,4.16,0.51C106.41,53.92,105.76,53.92,105.9,53.59z M107.9,53.7 c-0.85-0.24-0.98,0.06-1.71-0.23c-0.06,0.34,0.12,0.58,0.54,0.72C106.84,53.87,107.63,53.93,107.9,53.7z M111.29,44.96 c-0.37-0.05-0.52-0.21-1.1-0.17l-0.02,0.55C110.87,45.39,111.05,45.16,111.29,44.96z M113.24,44.59c0.04,0.21-0.11,0.51,0.27,0.56 c0.28-0.41,0.46-0.16,0.83,0.02c0.05-0.16,0.44-0.14,0.83-0.12c-0.02-0.24,0.07-0.43,0.28-0.55 C114.41,44.38,114.12,44.64,113.24,44.59z M112.97,44.03c0.73,0.02,1.62,0.12,1.65-0.23c-1.03,0.21-0.54-0.04-1.09-0.3 C113.86,43.95,112.64,43.58,112.97,44.03z M115.05,54.99c-0.24-0.65-1.1-0.17-2-0.46c-0.03,0.24,0.06,0.43,0.28,0.56 C114,55.1,114.17,54.87,115.05,54.99z M113.34,53.98c-1.13,0.07-0.42,0.22-1.72-0.04c0.11,0.59,0.78,0.92,1.41,1.28 c-0.09-0.33-0.44-0.53-0.27-0.97C115.78,54.41,116.68,53.77,113.34,53.98z M118.47,42.01c0.3,0.43,0.13,0.36-0.27,0.69 C119.29,43.01,119.41,41.85,118.47,42.01z M122.56,56.76c-0.43,0.03-1.07-0.04-1.16,0.14c0.6,0.03,0.08,0.61,0.88,0.55 C123.45,57.18,121.73,57.19,122.56,56.76z M124.87,56.69c0.74,0.47,0.92,0.36,0.02,0.55c1.15,0.45,1.63-0.18,2.62,0.05 c0.17-0.5-2.03-0.07-0.89-0.66C126.04,56.65,125.46,56.67,124.87,56.69z M124.6,57.11c-0.38,0.01-0.27-0.23-0.59-0.26 c0,0.28-0.79,0.2-0.57,0.57C124.11,57.44,124.53,57.36,124.6,57.11z M128.43,58.37c-1.74,0.29-2.33-0.12-3.8-0.29 c0.05,0.21-0.09,0.51,0.3,0.54C124.71,58.05,127.89,59.33,128.43,58.37z M129.83,57.22c-0.05-0.41-1.88-0.61-2.34-0.34 C127.98,57.14,128.69,57.29,129.83,57.22z M133.9,56.97c-0.06-0.16,0.02-0.39-0.32-0.39c-0.06,0.11,0.01,0.27-0.27,0.29 c0-0.24-0.24-0.34-0.61-0.38c-0.02,0.17-0.07,0.33-0.56,0.31c-0.07-0.1-0.02-0.27-0.31-0.26c-0.05,0.26,0.34,0.28,0.32,0.53 C132.73,57.04,133.31,57,133.9,56.97z M143.28,40.96c0.63,0.03,1.07,0.07,1.61-0.33C144.45,40.45,143.62,40.72,143.28,40.96z M141.65,41.12c0.17-0.02,0.32-0.05,0.26-0.16c-0.66,0-0.57,0.3-1.34,0.26c-0.02,0.35,0.46,0.39,0.87,0.48 C141.46,41.48,141.29,41.19,141.65,41.12z M144.04,59.06c-0.69,0.06-0.84,0.31-1.74,0.3c-0.03-0.08-0.06-0.16-0.31-0.11 c0.05,0.24-0.02,0.43-0.24,0.58C143.44,59.66,143.12,59.54,144.04,59.06z M145.69,40.39c-0.53,0.11-0.56-0.12-0.85-0.18 c0.36,0.54,0.33,0.66-0.14,1.13C145.43,41.17,145.72,40.84,145.69,40.39z M148.22,40.78c-0.95-0.11-1.09,0.72-1.61,0.33 c0.59-0.09,0.26-1.11-0.62-0.62c0.52-0.12,0.47,0.58-0.22,0.44c0.13,0.65,1.35,0.58,2.55,0.53c0-0.26,0.12-0.48,0.47-0.61 C150.21,40.45,147.99,40.98,148.22,40.78z M152.26,40.08c-0.47,0.08-0.84,0.1-1.1,0.02l0.08,0.55 C151.92,40.58,152.05,40.32,152.26,40.08z M160.69,39.11c-0.11-0.45-1.17,0.23-0.66-0.58c-0.8,0.28-2.01,1.11-3.18,0.85 c0.28-0.06,0.18-0.21-0.29-0.09c-0.02,0.27,0.35,0.25,0.36,0.5C158.23,39.45,159.4,39.13,160.69,39.11z M171.32,36.49 c-0.51,0.09-0.55,0.29-1.03,0.39c0.02-0.21,0.39-0.33,0.44-0.53c-1.43,0.25-0.98,0.99,0.15,0.67 C170.74,36.78,171.18,36.67,171.32,36.49z M172.26,34.56c0.58-0.55,1.96-0.79,2.54-1.04c-0.62-0.23-1.82,0.04-2.99,0.3 c0.08,0.23,0.04,0.43-0.13,0.6C172.81,34.04,171.52,34.74,172.26,34.56z M175.2,33.99c-0.55-0.09-2.32,0.51-1.52,0.65 C173.54,34.27,175.34,34.36,175.2,33.99z M195.56,27.38c-0.31,0.08-0.35-0.11-0.4-0.3c-0.77,0.34-1.96,0.63-1.91,1.09 C194.15,27.67,195.17,27.95,195.56,27.38z M200.94,22.56c-0.05-0.51-2.36,0.55-2.55,0.81c0.21-0.04,0.33,0,0.35,0.16 c-0.33,0-0.74,0.08-1.3,0.34c0.13,0.4,1.63-0.57,2.4-0.46c-0.18-0.27-0.13-0.51,0.3-0.7C200.24,22.85,200.59,22.71,200.94,22.56z M212.28,15.29c-0.62,0.37-1.02,0.76-1.22,1.15C211.77,16.44,212,15.68,212.28,15.29z M216.5,18.02c-0.5-0.23-0.04-0.57-0.84-0.51 c-0.01,0.22-0.19,0.35,0.18,0.37c-0.37,0.19-0.84,0.38-0.6,0.59C215.78,18.16,216.17,18.05,216.5,18.02z M226.66,9.01 c0.28-0.34,0.96-0.72,1.03-1.04c-0.63,0.14-1.34,0.54-1.46,0.83C226.47,8.66,226.57,8.83,226.66,9.01z M228,12.41 c-0.76,0.77-2.86,1.23-1.67,1.7C226.59,13.39,228.39,13.18,228,12.41z M234.91,9.77c-0.62,0.29-1.52,0.68-1.61,1.28 C234.09,10.41,234.76,10.59,234.91,9.77z M64.76,52.28c-1.22,0.29-1.1-0.61-2.46-0.99c0,0.21-0.21,0.47,0.16,0.6 c0.68-0.26,0.19,0.8,0.67,1c0.13-0.68,0.86,0.11,1.52-0.08C64.75,52.46,64.23,52.44,64.76,52.28z M83.13,55.35 c0.14-0.44-0.25-0.71-1.05-0.84C82.21,54.86,82.37,55.2,83.13,55.35z M83.53,54.57c-0.37,0.55,0.55,0.7,1.04,0.98 C84.52,55.13,84.16,54.81,83.53,54.57z M91.84,55.99c0.31,0.02,1.08,0.13,1.68,0.19c0.6,0.05,1.02,0.06,0.65-0.09 c-1.61-0.05-0.83-0.48-1.69-0.59C92.78,55.99,91.53,55.51,91.84,55.99z M111.25,57.11c0.92-0.05,1.02,0.27,2.03,0.19 C113.14,56.84,111.5,56.78,111.25,57.11z M21.36,42.71c-0.43-0.48-1.52-0.75-2.18-0.93C18.68,42.26,20.99,42.89,21.36,42.71z M15.75,31.51c0.39,0.18,0.85,0.96,1.24,0.73c-0.39-0.22-0.05-0.36,0.17-0.38c-0.3-0.16-0.49-0.5-0.78-0.36 c0.15,0.08,0.3,0.16,0.2,0.25C16.27,31.63,15.86,31.39,15.75,31.51z M15.95,35.26c0.51,0.21,0.52,0.42,1,0.6 c0.14-0.15,0.54-0.02,0.7-0.15c-0.35-0.15-0.74-0.34-1.06-0.45C16.28,35.15,16.03,35.11,15.95,35.26z M18.75,31.83 c-0.3,0.38-1.57,0.55-0.24,1.25C18.5,32.67,19.28,32.22,18.75,31.83z M20.59,35.48c-0.68-0.5,0.85-0.02,0.8-0.41 c-0.61-0.2-0.96-0.09-1.49-0.19C19.89,35.07,20.99,36.04,20.59,35.48z M20.64,39.1c0.61-0.11,2.55,1.24,2.85,0.75 C22.36,39.33,20.39,38.73,20.64,39.1z M24.23,38.8c-1.13-0.26-1.43-0.74-2.25-0.63c0.41,0.15,0.91,0.42,1.35,0.58 C23.76,38.91,24.12,38.99,24.23,38.8z M21.69,42.7c1.39,0.33,2.68,1.03,2.48,0.98c0.17,0.06,0.33,0.11,0.32-0.02 C23.92,43.14,22.23,42.62,21.69,42.7z M8.65,28.4c-0.43-0.02-0.7,0.41-0.05,0.75c0-0.48,0.96,0.3,0.82-0.36 C9.16,28.66,8.91,28.53,8.65,28.4z M0.77,20.17c0.07,0.53-0.55,0.08-0.77,0.21c0.38,0.47,0.32,0.16,0.99,0.54 C1.06,20.68,1.58,20.46,0.77,20.17z M9.2,21.1c0.32-0.41-0.06-0.82-0.61-1.24C8.9,20.28,8.49,20.69,9.2,21.1z M15.47,41.38 c0.9,0.13,3.89,1.6,3.5,0.9C18.06,42.28,16.09,41.08,15.47,41.38z M13.34,33.28c0.06-0.58,1.6,0.63,1.6-0.01 c-0.87-0.34-1.53-0.42-2.48-0.85C12.04,32.71,13.24,32.99,13.34,33.28z M10.64,29.57c0.51,0.26,1.03,0.5,1.55,0.75 C12.73,29.64,11.12,29.74,10.64,29.57z M11.68,28.08c-0.07,0.25-0.03,0.51,0.27,0.75c0.15-0.21,0.91,0.33,1.15,0.23l0.24-0.5 c-0.93-0.55-0.5,0.58-1.53-0.11C11.92,28.29,11.99,27.95,11.68,28.08z M90,59.4c-0.28,0.44-1.9-0.26-2.68,0.12 c0.62,0.38,1.47,0.16,2.07,0.09c0.27,0.21,0.22,0.54,0.82,0.65C89.67,59.84,90.58,59.66,90,59.4z M58.99,51.38 c0.27,0.22,1.3,0.35,1.73,0.26C60.32,51.3,59.29,51.17,58.99,51.38z M60.69,50.49c1.06,0.47,0.23-0.56,0.97-0.34 c-0.02,0.08,0.19,0.21,0.28,0.07c-0.56-0.56-1.17-0.35-2.01-0.32C60.38,50.16,61.4,50.16,60.69,50.49z M56.45,51.9 c-0.93-0.23-2.52-1.25-2.27-0.59c0.13-0.18,1.48,0.47,1.64,0.71c0.02,0.4-1.09-0.15-1.24,0.1c0.34,0.28,1.92,0.77,2.03,0.39 C55.16,52.25,56.24,52.11,56.45,51.9z M81.8,58.51c0.63,0.11,0.58,0.43,0.49,0.77c1.08-0.02,2.27,0.6,2.63,0.37 C83.46,59.48,83.06,58.3,81.8,58.51z M111.8,58.22c0.34,0.39,0.82,0.5,0.27,0.97c-0.37-0.04-0.29-0.28,0.01-0.28 c-1.11-0.44-2.09-0.09-3.49-0.36c-0.1,0.36,1.13,0.14,0.86,0.57c-0.49,0.01-1.84-0.49-1.76,0.08c-2.33-0.44-3.73-0.68-4.62-1.21 c1.87,0.34,2.82-0.32,3.5,0.19c0.24-0.41-1-0.22-0.55-0.72c1.47,0.17,2.58,0.61,2.62-0.02c1.2,0.19,0.54,1.21,2.59,1.03 c-0.61-0.23-1.07-0.52-1.73-0.73c0.54-0.36,1.06,0.43,2.32,0.2c-0.51-0.51,0.04-0.42,1.18-0.39c-0.04,0.18-0.56,0.75-0.01,0.41 C113.75,58.12,112.46,58.35,111.8,58.22z M109.17,58.43c0.02-0.39-1.79-0.57-1.74-0.2C108.17,58.53,108.31,58.21,109.17,58.43z M74.07,58.27c-0.81-0.25-0.79,0.06-1.49-0.11c-0.49,0.36,1.69,0.64,1.73,0.43C74.09,58.52,73.99,58.42,74.07,58.27z M50.93,49.89 c1.41,0.5,3.58,0.89,4.91,0.86C54.73,50.48,52.41,49.76,50.93,49.89z M24.94,35.53c-0.15-0.09-0.89-0.73-1.06-0.44 c0.3,0.15,0.76,0.3,0.74,0.46c-0.11,0.13-0.48-0.03-0.85-0.21c-0.1,0.38,0.26,0.74,0.16,1.12c-0.41,0.09-1.14-0.04-2.33-0.4 c0.16,0.08,0.3,0.15,0.21,0.24c0.26,0.11,0.27,0.24,0.48,0.35c-0.08-0.72,1.79,0.79,2.02,0.4c-0.47-0.69,0.66-0.47,0.79-0.43 C24.36,36.31,24.84,35.9,24.94,35.53z M53.13,51.89c-1.3-0.48-2.13-0.63-3.49-0.63C51.37,51.6,51.85,51.88,53.13,51.89z M25.1,36.63 c0,0,0.01,0,0.01,0.01C25.11,36.63,25.11,36.63,25.1,36.63z M39.38,47.56c-1.08-0.46-1.09-0.46-2.24-0.73 c0.13,1.06,3.61,0.76,4.11,1.63C41.61,48.02,38.01,46.61,39.38,47.56z M26.46,40.28c0.65,0.09,1.76,0.66,2.04,0.36 C27.77,40.36,26.12,40.03,26.46,40.28z M44.47,50.03c0.31,0.29,1.19,0.49,1.94,0.71C46.61,50.24,44.85,49.77,44.47,50.03z M49.03,49.07c-0.43,0.23-2.05-0.6-2.12-0.04c0.56,0.48,1.03-0.07,2.29,0.53C49.2,49.38,49.36,49.18,49.03,49.07z M47.53,45.89 c0.18-0.17,0.9,0.14,0.71-0.37c-0.65-0.12-1.49-0.15-1.94-0.57C46.03,45.38,47.61,45.5,47.53,45.89z" fill="url(#a)"/></svg>