<?xml version="1.0" encoding="UTF-8"?><svg xmlns="http://www.w3.org/2000/svg" xmlns:xlink="http://www.w3.org/1999/xlink" height="489.7" preserveAspectRatio="xMidYMid meet" version="1.0" viewBox="-2.3 -6.0 470.1 489.7" width="470.1" zoomAndPan="magnify"><g><g id="change1_2"><path d="M452.9,233.3c-0.1,46.8-15.7,93.2-43.3,130.9c-26.3,36-63.3,63.8-105.2,78.9 c-43.5,15.7-91.7,17.5-136.2,5.3c-43.1-11.9-82.2-36.8-111.3-70.8c-29.4-34.4-48-77.4-52.7-122.4c-5-48.1,7.5-97.6,33.2-138.4 c23.7-37.7,58.6-67.9,99.3-86c42.4-18.8,90.4-24,135.9-14.8c43.8,8.8,84.5,31,115.8,62.9c31.5,32.1,53,73.4,61,117.7 c2.3,12.6,3.5,25.4,3.5,38.2C452.9,238.2,453,234.9,452.9,233.3c-0.1-45.9-13.1-90.7-39.1-128.7c-26.2-38.2-64.1-68-107.5-84.1 c-45-16.7-95.2-18.5-141.4-5C120.3,28.5,80.3,55.5,51.4,92c-29,36.6-45.9,81.8-48.2,128.4c-2.2,44.7,7.1,89.1,29.5,128 c22.9,39.9,58.1,72.4,99.8,92c43.6,20.5,93.6,26.3,140.8,16.6c45.5-9.3,87.5-33,119.2-67c31.9-34.1,52.6-78,58.6-124.3 c1.3-10.3,1.9-20.6,1.9-31C453,233.1,452.9,229.8,452.9,233.3z" fill="#161616"/></g></g><g><g id="change1_3"><path d="M289.7,450.5c-44.7,10.4-91.9,7.2-134.6-9.7c-41.5-16.5-77.7-45.3-102.9-82.2 c-26.9-39.3-41.8-88.4-38.9-136.2c2.8-45.1,19.6-88.9,47.4-124.5c57.1-73,156.4-103.9,244.8-76c42.1,13.3,79.9,39,107.6,73.4 c29.5,36.5,46.9,82.1,49.5,128.9c5.2,92.8-55,181.7-140.3,216C311.7,444.4,300.8,447.8,289.7,450.5c-0.4,0.1,0.3,4.9,0,5 c46.2-11.1,88.1-36.4,119.1-72.5c30.3-35.3,49.1-79.9,53.3-126.2c4-44.2-3.9-89.2-24.3-128.7c-21.4-41.5-55.9-75.6-97.5-96.9 C298.5,9.7,250.3,1.9,203.8,9.1c-47.2,7.3-91.5,29.7-125.3,63.6C45.8,105.6,23.7,148.5,16,194.3c-7.3,43.4-2.4,89.2,14.7,129.8 c18.1,43,49.8,79.7,89.6,104.2c40,24.5,87.4,36.2,134.2,32.6c11.9-0.9,23.6-2.8,35.2-5.5C290.1,455.4,289.4,450.6,289.7,450.5z" fill="#161616"/></g><g><g id="change1_1"><path d="M339.7,430c-41.9,22.5-90.8,31-137.8,24.5c-44.8-6.2-87.5-25.7-121.2-55.9c-35-31.2-59.9-73.4-70.4-119.1 c-10.2-44.2-6.8-91.2,9.5-133.5c16.5-42.8,46-80.2,83.9-106.1c40.5-27.7,90.8-40.4,139.6-37.1c45.1,3,88.9,19.5,124.7,47.1 c37.3,28.8,65,69.2,78.8,114.2c13.3,43.4,13.1,90.4-0.2,133.7c-13.4,43.6-40,82.8-75.7,111.2c-10.1,8.1-21,15.4-32.4,21.6 C335.4,432.3,338.3,430.8,339.7,430c40.9-22.2,74.6-55.5,96-97c21.5-41.8,29.8-90,23.2-136.6c-6.8-48.3-29.4-93.9-63.7-128.6 c-33.1-33.6-76.6-56.2-123-64.4C225.6-4.8,177,1.9,134.3,22.3c-40.9,19.6-76.1,49.3-100,88C9.7,150.1-2.3,197.2,0.4,243.8 c2.8,48.8,21.7,96.2,53.1,133.7c30.3,36.1,71.7,62.2,117.3,74.1c45.8,12,95,9.3,139.2-7.7c9.8-3.8,19.3-8.3,28.6-13.3 C339.9,430,342.9,428.3,339.7,430z" fill="#161616"/></g><g id="change1_4"><path d="M67.1,389.1c-30.9-34.9-50.7-78.5-56.2-124.8c-5.3-45,2.9-91.2,23.7-131.5c22.1-43,58.8-80,102.8-100.4 c41.6-19.3,88.8-25.4,134-17.8c92.7,15.7,168.2,89.4,185.9,181.8c8.4,44,3.7,90.2-13.6,131.5c-18.3,43.9-50.6,81.4-91.1,106.4 c-80.3,49.4-188.7,38.5-260.5-21C83.2,405.8,74.9,397.7,67.1,389.1c-0.3-0.3-4.2,2.7-4.5,2.4c32.2,35.9,75,61.1,122.2,71.3 c46.1,10,95,5.3,138.4-13.3c41.3-17.8,77.7-46.5,103.1-83.7c26.7-39.1,40.6-86.4,39.5-133.7c-1.1-47.7-17.3-94.5-46.2-132.5 c-29.3-38.6-70.6-67.4-117.2-81.2C257.4,5,208.3,5.9,163.8,21.1C121.5,35.6,82.9,62,54.9,96.9C25.3,133.8,7.8,179.8,5.2,227.1 c-2.6,47.6,9.9,95.4,35.6,135.5c6.5,10.2,13.9,19.8,21.9,28.8C63,391.8,66.9,388.8,67.1,389.1z" fill="#161616"/></g></g></g></svg>