<?xml version="1.0" encoding="UTF-8"?><svg xmlns="http://www.w3.org/2000/svg" xmlns:xlink="http://www.w3.org/1999/xlink" height="500.0" preserveAspectRatio="xMidYMid meet" version="1.1" viewBox="-3.2 -0.1 329.9 500.0" width="329.9" zoomAndPan="magnify">
 <g id="surface1">
  <g id="change1_1"><path d="m305.93 276.95c-11.02-20.18-37.99-39.24-28.43-65.01 4.34-11.68 13.17-21.18 16.77-33.19 3.74-12.47 1.1-25.31-4.09-36.96-6.79-15.24-17.06-28.85-26.31-42.661-0.68-1.02-1.36-2.027-2.04-3.051-0.2-1.269-0.42-2.539-0.65-3.808-6.48-35.508-24.89-65.532-50.5-82.348-10.01-6.5939-19.22-9.8322-28.15-9.922h-0.32c-9.64 0-18.45 4.1719-23.31 10.762-4.91-6.6604-13.89-10.864-23.62-10.762-8.94 0.089844-18.15 3.3281-28.15 9.9219-25.618 16.828-44.028 46.84-50.497 82.348-0.281 1.55-0.551 3.109-0.781 4.66-7.649 11.35-15.641 22.58-22.442 34.45-6.719 11.72-12.418 24.99-11.379 38.79 0.93 12.19 7.641 21.97 13.531 32.26 6.801 11.89 9.481 23.71 3.211 36.5-5.453 11.12-14.461 20.07-21.461 30.18-14.832 21.42-20.531 48.66-15.55 74.23 4.3708 22.46 17.031 42.68 34.89 56.65l-4.371 60.54c-0.07 0.92 0.371 1.8 1.141 2.29 15.422 9.85 31.898 17.82 49.039 23.81 2.152 0.75 4.301 1.47 6.469 2.15 22.98 7.3 47.03 11.07 71.13 11.07 6.88 0 13.78-0.31 20.65-0.93 18.5-1.67 36.77-5.62 54.38-11.67 2.08-0.71 4.16-1.46 6.22-2.24 18.26-6.85 35.75-16 52-27.26 0.73-0.5 1.14-1.35 1.07-2.23-1.53-21.17-3.06-42.35-4.59-63.52 29.37-29.74 36.92-77.02 16.14-115.05" fill="#0f0e0c"/></g>
  <g id="change2_1"><path d="m70.781 403.2c-3.961-5.84-8.64-11.73-9.609-18.95-0.981-7.24 2.039-14.09 5.539-20.23 4.152-7.29 9.871-14.4 10.781-23.02 0.121-1.14 0.121-2.27 0-3.37-0.211-1.99-0.781-3.88-1.691-5.59v-0.01c-1.918-3.63-5.309-6.38-9.707-7.23-1.571-0.3-1.59-2.34 0.097-2.39 4.063-0.13 7.379 1.06 9.942 3.09 0.148-1.49 0.308-2.91 0.371-4.19 0.289-6.19 0.59-12.38 0.887-18.58 0.289-6.19 0.539-12.39 0.89-18.58 0.16-2.95 0.242-5.97 0.41-8.98-3.089 1.55-6.078 3.23-8.859 5.09-4.672 3.1-8.371 6.46-11.328 10.27-9.844 12.65-11.133 30.5-12.16 44.84l-4.383 60.58-0.551 7.53-4.039 55.92c14 8.82 28.883 16.06 44.332 21.64-2.762-26.42 5.078-54.3-10.922-77.84zm-0.488-271.03c0.09 0.88 1.758 0.93 1.887 0.05-0.309 2.09 4.73 0.48 2.14 3.18-0.418 0.44-1.359 0.64-1.879 1.1-1.597 1.44-2.019 3.51-2.089 5.58-0.161 5.47 2.402 11.38 5.949 15.42 1.242 1.4 4.851-0.13 3.66-2.03-2.399-3.84-8.34-13.16-3.359-16.92 2.3-1.74 3.519-2.12 2.519-5.5-0.699-2.39-2.379-4.82-5.129-4.72-2.25 0.08-3.941 1.63-3.699 3.84zm-4.07 16.71c-1.422-6.29-1.832-13.39-0.743-19.77 1.442-8.4 9.364-15.86 16.25-8.45-0.039 1.05-0.05 2.11-0.05 3.17 0 1.34 0.023 2.68 0.062 4.02 0.039 1.12 0.078 2.24 0.149 3.36 0.011 0.21 0.019 0.43 0.039 0.64 0.05 0.96 0.121 1.91 0.203 2.87 0.047 0.6 0.109 1.2 0.168 1.79 0.051 0.51 0.101 1.03 0.152 1.54 0.149 1.35 0.32 2.69 0.508 4.02 0.152 1.09 0.32 2.19 0.512 3.28 0.05 0.29 0.097 0.59 0.148 0.88 0.152 0.87 0.309 1.73 0.481 2.6 0.25 1.26 0.519 2.52 0.808 3.77 0.133 0.57 0.262 1.15 0.402 1.72 0.868 3.53 1.879 6.99 3.02 10.36 0.148 0.45 0.309 0.89 0.469 1.34 0.23 0.65 0.461 1.3 0.703 1.93-11.524 2.78-20.852-8.3-23.281-19.07zm65.677 92.58c-5.81 9.48-16.27 17.43-31.99 24.32-1.527 0.67-3.066 1.33-4.629 1.99 0.5 14.42 0.641 28.81 2.082 43.23 0.68 6.82 1.547 13.6 2.539 20.38 21.098 4.41 42.158 7.5 63.878 6.71 12.19-0.45 24.41-1.9 36.35-4.42 7.45-1.57 14.69-3.86 21.98-5.99 0.81-5.97 1.53-11.95 2.1-17.95 1.4-14.78 1.46-29.54 2.03-44.33-15.23-6.8-25.43-14.64-31.13-23.94-0.21-0.35-0.34-0.75-0.36-1.16-0.16-2.56-0.23-5.11-0.23-7.67 0-0.85 0.01-1.71 0.03-2.56-0.01-0.02-0.01-0.04 0-0.07 0.02-0.82 0.04-1.64 0.08-2.46-0.01-0.07 0-0.14 0.01-0.22 0.02-0.66 0.06-1.33 0.1-2 0.01-0.37 0.04-0.74 0.07-1.11 0.04-0.75 0.1-1.49 0.17-2.23 0.06-0.7 0.12-1.4 0.19-2.1 0.01-0.12 0.03-0.23 0.04-0.35 0.07-0.67 0.15-1.33 0.23-2 0.03-0.24 0.06-0.49 0.1-0.74 0.09-0.74 0.19-1.49 0.3-2.23 0.09-0.64 0.19-1.28 0.3-1.92 0.03-0.21 0.07-0.42 0.1-0.63l-6.59 4.23c-0.34 0.19-0.68 0.38-1.02 0.56l-7.02 3.3c-0.11 0.05-0.23 0.1-0.34 0.14-0.23 0.09-0.46 0.18-0.69 0.26-0.39 0.15-0.78 0.3-1.17 0.43-2.1 0.75-4.23 1.39-6.38 1.91-0.45 0.11-0.91 0.21-1.37 0.31-0.47 0.1-0.93 0.19-1.4 0.28-2.4 0.46-4.83 0.78-7.27 0.94-0.41 0.03-0.82 0.05-1.22 0.07-0.48 0.02-0.96 0.04-1.44 0.05-0.47 0.01-0.95 0.02-1.43 0.02-0.59 0-1.18-0.01-1.77-0.03-0.39-0.01-0.79-0.02-1.18-0.05-0.32-0.01-0.64-0.02-0.96-0.05-0.23-0.01-0.46-0.03-0.69-0.05-0.33-0.02-0.65-0.04-0.98-0.08-0.47-0.04-0.94-0.09-1.41-0.15-0.03 0-0.06 0-0.09-0.01-0.49-0.05-0.97-0.11-1.45-0.18-0.57-0.08-1.14-0.17-1.7-0.27-0.66-0.11-1.32-0.24-1.97-0.37-1.23-0.25-2.45-0.55-3.67-0.88-0.29-0.07-0.58-0.16-0.87-0.25-0.45-0.12-0.89-0.25-1.34-0.4-0.07-0.01-0.14-0.04-0.22-0.06-0.56-0.18-1.12-0.36-1.67-0.56-0.12-0.04-0.24-0.08-0.36-0.13-0.41-0.14-0.82-0.29-1.23-0.45-1.92-0.72-3.82-1.55-5.7-2.48 0.07 0.62 0.14 1.24 0.2 1.87 0.06 0.56 0.12 1.12 0.16 1.68 0.13 1.35 0.22 2.71 0.3 4.07 0.04 0.69 0.08 1.39 0.1 2.08 0.03 0.71 0.05 1.42 0.07 2.13 0.07 3.48 0 6.96-0.21 10.42-0.02 0.41-0.15 0.81-0.36 1.15zm-21-142.9c4.17-3.309 8.11-6.149 13.72-4.539 4.28 1.218 6.32 4.621 9.76 6.99 0.66 0.45 2.13 0.18 2.24-0.76 0.82-6.648-7.55-11.379-13.23-11.922-6.29-0.609-13.83 2.172-16.55 8.231-1.09 2.429 2.59 3.152 4.06 2zm28.17 83.321c11 6.95 26.39 5.57 36.51-2.25 2.33-1.8-0.49-4.38-2.69-3.21-10.38 5.49-20.77 6.17-31.88 2.66-1.68-0.53-3.87 1.58-1.94 2.8zm4.65-34.17c0.11 6.52 7.83 11.18 13.79 10.45 1.3-0.16 2.42-1.7 1.34-2.79-2.18-2.2-5.55-2.29-7.87-4.34-4.22-3.73-1.03-8.3 1.78-11.67 3.35-4 7.35-8.54 4.74-13.97-0.5-1.04-2.77-0.72-2.56 0.58 1.47 9.32-11.37 12.64-11.22 21.74zm17.26 21.03c-4.04-1.51-8.1-0.85-11.86 1.12-1.55 0.81 0.08 2.52 1.4 2.02 3.06-1.17 6.35-1.17 9.54-0.59 1.62 0.3 2.68-1.89 0.92-2.55zm16.77-68.47c0.13 0.94 1.5 1.24 2.19 0.71 3.93-3.019 6.29-7.23 11.87-7.468 4.59-0.192 7.86 2.578 11.39 5.078 1.31 0.93 5.42 0.351 4.47-2.039-2.56-6.403-10.2-9.031-16.68-8.141-5.29 0.719-14.11 5.469-13.24 11.86zm19.09 26.07c0-7.25-2.11-13.12-4.7-13.12-2.6 0-4.7 5.87-4.7 13.12s2.1 13.12 4.7 13.12c2.59 0 4.7-5.87 4.7-13.12zm-28.99 65.1c-6.35 3.52-13.22 4.14-19.49 0.07-1.4-0.9-4.21 0.81-2.7 2.34 6.54 6.65 19.02 7.37 25.2-0.24 1.68-2.07-1.5-3.01-3.01-2.17zm-40.9-65.1c0-7.25-2.1-13.12-4.7-13.12-2.59 0-4.7 5.87-4.7 13.12s2.11 13.12 4.7 13.12c2.6 0 4.7-5.87 4.7-13.12zm-32.657 40.2c-4.91-13.01-7.613-27.58-7.613-42.71 0-12.81 1.914-25.029 5.371-36.201 12.359-1.27 24.949-5.731 35.439-10.77 9.58-4.589 18.72-10.468 26.64-17.64 19.44 15.48 45.11 24.832 69.8 22.992 4.61 12.59 7.19 26.709 7.19 41.619 0 16.11-3.03 31.61-8.6 45.32-0.35 0.86-0.71 1.72-1.08 2.57-5.58 12.76-13.41 23.84-23.07 32.22-11.74 10.19-25.39 15.57-39.47 15.57-6.97 0-13.79-1.3-20.36-3.87-1.19-0.46-2.38-0.97-3.55-1.52-1.75-0.82-3.48-1.73-5.19-2.73-0.01-0.01-0.03-0.02-0.05-0.03-14.86-8.7-26.73-23.54-34.219-41.68-0.429-1.03-0.84-2.08-1.238-3.14zm145.83-21.07c-1.32 3.13-4.03 5.94-1.25 8.87 0.66 0.68 2.32 0.62 2.71-0.37 0.99-2.48 1.69-4.96 2.7-7.44 0.58-1.44 1.07-3.1 0.82-4.67-0.24-1.55-1-2.17-1.89-3.31-1.29-1.64-1.28-1.42-0.21-4.05 0.31-0.76 1.5-4.04 2.22-3.58 0.57 0.36 2.2-0.05 1.66-0.95-3.22-5.36-8.49 4.65-8.77 7.32-0.35 3.44 3.66 4.27 2.01 8.18zm-9.12 14.5c0.28-0.94 0.55-1.89 0.8-2.84 0.35-1.3 0.67-2.6 0.97-3.92 0.16-0.63 0.3-1.27 0.44-1.91 0.21-0.98 0.41-1.96 0.6-2.96 0.18-0.92 0.35-1.85 0.5-2.78 0.1-0.56 0.19-1.12 0.27-1.69 0.09-0.51 0.16-1.01 0.23-1.52 0.15-1.01 0.28-2.02 0.4-3.03 0.24-2 0.43-4.02 0.57-6.05 0.23-3.12 0.34-6.27 0.34-9.44 0-0.52 0-1.05-0.02-1.57 6.05-5.97 13.4-0.02 15.41 7.47 1.61 6.01 1.16 13.09 0.21 19.19-1.87 11.94-11.2 24.75-24.15 21.02 0.21-0.49 0.4-0.98 0.58-1.47 0.66-1.75 1.29-3.53 1.87-5.33 0.17-0.52 0.34-1.05 0.49-1.58 0.18-0.53 0.34-1.06 0.49-1.59zm8.24 258.7c2.08-7.65 5.9-14.15 10.35-20.64 5.48-7.99 9.03-15.47 5.38-25.08-3.25-8.53-9.62-15.46-12.7-24.09-1.68-4.7-1.71-10.21-0.14-14.98-1.05-4.25-0.39-9.75-0.5-13.54-0.21-6.52-0.41-13.04-0.62-19.56-0.3-9.53-1.48-19.72-0.97-29.46-2.12-0.93-4.24-1.82-6.34-2.71-1.12-0.48-2.24-0.95-3.36-1.43 0.99 14.41 0.18 29.22-0.84 43.45-0.37 5.12-0.82 10.25-1.39 15.36-0.18 1.79-0.39 3.57-0.61 5.35-2.05 0.88-4.14 1.68-6.26 2.41-6.4 2.21-13.04 3.83-19.51 5.24-12.57 2.74-25.33 4.35-38.18 4.76-20.99 0.68-42.91-1.28-63-8.03-2.159-0.73-4.308-1.51-6.429-2.36-0.141-1.1-0.277-2.2-0.41-3.3-0.77-6.56-1.367-13.15-1.828-19.74-0.93-13.38-1.672-27.17-0.93-40.71-2.57 1.09-5.152 2.2-7.699 3.38-0.031 3.45-0.242 6.91-0.324 10.28-0.129 6.18-0.36 12.35-0.559 18.52-0.199 6.5-0.398 13-0.609 19.49-0.121 3.57 0.371 8.01-0.391 11.83 1.731 4.86 1.699 10.62-0.078 15.58-2.891 8.07-8.711 14.63-12.051 22.47-4.23 9.89-1.219 17.57 4.531 25.96 4.61 6.73 8.59 13.41 10.739 21.35 2.011 7.39 2.629 15.1 2.789 22.73 0.293 14.1-0.93 28.12 0.793 42.05 29.606 9.75 61.066 13.5 92.166 10.69 18.92-1.71 37.59-5.85 55.55-12.24 1.33-12.81 0.38-25.72 0.53-38.69 0.09-8.2 0.75-16.4 2.9-24.34zm2.71 60.75c2.21-25.71-4.93-53.14 10.31-75.78 3.87-5.75 8.52-11.43 9.96-18.39 1.44-6.98-0.93-13.69-4.19-19.8-3.83-7.2-9.42-13.84-11.34-21.92-0.53-2.23-0.65-4.48-0.37-6.62 0.19-1.5 0.58-2.94 1.16-4.28 1.71-3.9 5.06-6.9 9.99-7.83 1.46-0.28 1.91-2.33 0.1-2.4-4.2-0.15-7.61 1.17-10.23 3.4-0.17-1.93-0.4-3.81-0.48-5.49-0.3-6.35-0.6-12.71-0.9-19.06-0.28-5.83-0.51-11.68-0.84-17.51-0.19-3.39-0.24-6.89-0.47-10.35 1.15 0.54 2.29 1.09 3.41 1.66 0.02 0.01 0.03 0.02 0.05 0.02 9.34 4.65 15.83 9.57 20.41 15.46 9.85 12.65 11.13 30.5 12.17 44.84l1.18 16.38c0.89 12.31 1.78 24.62 2.67 36.93 0.18 2.59 0.37 5.17 0.56 7.76 1.39 19.34 2.79 38.68 4.19 58.01-14.86 10.17-30.77 18.55-47.34 24.97" fill="#fff"/></g>
  <g id="change1_2"><path d="m70.293 132.17c-0.242-2.21 1.449-3.76 3.699-3.84 2.75-0.1 4.43 2.33 5.129 4.72 1 3.38-0.219 3.76-2.519 5.5-4.981 3.76 0.96 13.08 3.359 16.92 1.191 1.9-2.418 3.43-3.66 2.03-3.547-4.04-6.11-9.95-5.949-15.42 0.07-2.07 0.492-4.14 2.089-5.58 0.52-0.46 1.461-0.66 1.879-1.1 2.59-2.7-2.449-1.09-2.14-3.18-0.129 0.88-1.797 0.83-1.887-0.05zm56.657-5.83c0 7.25-2.1 13.12-4.7 13.12-2.59 0-4.7-5.87-4.7-13.12s2.11-13.12 4.7-13.12c2.6 0 4.7 5.87 4.7 13.12zm-16.05-27.781c-1.47 1.152-5.15 0.429-4.06-2 2.72-6.059 10.26-8.84 16.55-8.231 5.68 0.543 14.05 5.274 13.23 11.922-0.11 0.94-1.58 1.21-2.24 0.76-3.44-2.369-5.48-5.772-9.76-6.99-5.61-1.61-9.55 1.23-13.72 4.539zm32.82 49.151c-0.15-9.1 12.69-12.42 11.22-21.74-0.21-1.3 2.06-1.62 2.56-0.58 2.61 5.43-1.39 9.97-4.74 13.97-2.81 3.37-6 7.94-1.78 11.67 2.32 2.05 5.69 2.14 7.87 4.34 1.08 1.09-0.04 2.63-1.34 2.79-5.96 0.73-13.68-3.93-13.79-10.45zm17.26 21.03c1.76 0.66 0.7 2.85-0.92 2.55-3.19-0.58-6.48-0.58-9.54 0.59-1.32 0.5-2.95-1.21-1.4-2.02 3.76-1.97 7.82-2.63 11.86-1.12zm9.88 24.87c-6.18 7.61-18.66 6.89-25.2 0.24-1.51-1.53 1.3-3.24 2.7-2.34 6.27 4.07 13.14 3.45 19.49-0.07 1.51-0.84 4.69 0.1 3.01 2.17zm-29.85-14.53c11.11 3.51 21.5 2.83 31.88-2.66 2.2-1.17 5.02 1.41 2.69 3.21-10.12 7.82-25.51 9.2-36.51 2.25-1.93-1.22 0.26-3.33 1.94-2.8zm55.83-52.74c0 7.25-2.11 13.12-4.7 13.12-2.6 0-4.7-5.87-4.7-13.12s2.1-13.12 4.7-13.12c2.59 0 4.7 5.87 4.7 13.12zm-19.09-26.07c-0.87-6.391 7.95-11.141 13.24-11.86 6.48-0.89 14.12 1.738 16.68 8.141 0.95 2.39-3.16 2.969-4.47 2.039-3.53-2.5-6.8-5.27-11.39-5.078-5.58 0.238-7.94 4.449-11.87 7.468-0.69 0.53-2.06 0.23-2.19-0.71zm62.37 45.2c1.65-3.91-2.36-4.74-2.01-8.18 0.28-2.67 5.55-12.68 8.77-7.32 0.54 0.9-1.09 1.31-1.66 0.95-0.72-0.46-1.91 2.82-2.22 3.58-1.07 2.63-1.08 2.41 0.21 4.05 0.89 1.14 1.65 1.76 1.89 3.31 0.25 1.57-0.24 3.23-0.82 4.67-1.01 2.48-1.71 4.96-2.7 7.44-0.39 0.99-2.05 1.05-2.71 0.37-2.78-2.93-0.07-5.74 1.25-8.87zm1.83 333.95c2.21-25.71-4.93-53.14 10.31-75.78 3.87-5.75 8.52-11.43 9.96-18.39 1.44-6.98-0.93-13.69-4.19-19.8-3.83-7.2-9.42-13.84-11.34-21.92-0.53-2.23-0.65-4.48-0.37-6.62 0.19-1.5 0.58-2.94 1.16-4.28 1.71-3.9 5.06-6.9 9.99-7.83 1.46-0.28 1.91-2.33 0.1-2.4-4.2-0.15-7.61 1.17-10.23 3.4-0.17-1.93-0.4-3.81-0.48-5.49-0.3-6.35-0.6-12.71-0.9-19.06-0.28-5.83-0.51-11.68-0.84-17.51-0.19-3.39-0.24-6.89-0.47-10.35 1.15 0.54 2.29 1.09 3.41 1.66 0.02 0.01 0.03 0.02 0.05 0.02 9.34 4.65 15.83 9.57 20.41 15.46 9.85 12.65 11.13 30.5 12.17 44.84l1.18 16.38c0.89 12.31 1.78 24.62 2.67 36.93 0.18 2.59 0.37 5.17 0.56 7.76 1.39 19.34 2.79 38.68 4.19 58.01-14.86 10.17-30.77 18.55-47.34 24.97zm-2.71-60.75c-2.15 7.94-2.81 16.14-2.9 24.34-0.15 12.97 0.8 25.88-0.53 38.69-17.96 6.39-36.63 10.53-55.55 12.24-31.1 2.81-62.56-0.94-92.166-10.69-1.723-13.93-0.5-27.95-0.793-42.05-0.16-7.63-0.778-15.34-2.789-22.73-2.149-7.94-6.129-14.62-10.739-21.35-5.75-8.39-8.761-16.07-4.531-25.96 3.34-7.84 9.16-14.4 12.051-22.47 1.777-4.96 1.809-10.72 0.078-15.58 0.762-3.82 0.27-8.26 0.391-11.83 0.211-6.49 0.41-12.99 0.609-19.49 0.199-6.17 0.43-12.34 0.559-18.52 0.082-3.37 0.293-6.83 0.324-10.28 2.547-1.18 5.129-2.29 7.699-3.38-0.742 13.54 0 27.33 0.93 40.71 0.461 6.59 1.058 13.18 1.828 19.74 0.133 1.1 0.269 2.2 0.41 3.3 2.121 0.85 4.27 1.63 6.429 2.36 20.09 6.75 42.01 8.71 63 8.03 12.85-0.41 25.61-2.02 38.18-4.76 6.47-1.41 13.11-3.03 19.51-5.24 2.12-0.73 4.21-1.53 6.26-2.41 0.22-1.78 0.43-3.56 0.61-5.35 0.57-5.11 1.02-10.24 1.39-15.36 1.02-14.23 1.83-29.04 0.84-43.45 1.12 0.48 2.24 0.95 3.36 1.43 2.1 0.89 4.22 1.78 6.34 2.71-0.51 9.74 0.67 19.93 0.97 29.46 0.21 6.52 0.41 13.04 0.62 19.56 0.11 3.79-0.55 9.29 0.5 13.54-1.57 4.77-1.54 10.28 0.14 14.98 3.08 8.63 9.45 15.56 12.7 24.09 3.65 9.61 0.1 17.09-5.38 25.08-4.45 6.49-8.27 12.99-10.35 20.64zm-201.87 40.73l4.039-55.92 0.551-7.53 4.383-60.58c1.027-14.34 2.316-32.19 12.16-44.84 2.957-3.81 6.656-7.17 11.328-10.27 2.781-1.86 5.77-3.54 8.859-5.09-0.168 3.01-0.25 6.03-0.41 8.98-0.351 6.19-0.601 12.39-0.89 18.58-0.297 6.2-0.598 12.39-0.887 18.58-0.063 1.28-0.223 2.7-0.371 4.19-2.563-2.03-5.879-3.22-9.942-3.09-1.687 0.05-1.668 2.09-0.097 2.39 4.398 0.85 7.789 3.6 9.707 7.23v0.01c0.91 1.71 1.48 3.6 1.691 5.59 0.121 1.1 0.121 2.23 0 3.37-0.91 8.62-6.629 15.73-10.781 23.02-3.5 6.14-6.52 12.99-5.539 20.23 0.969 7.22 5.648 13.11 9.609 18.95 16 23.54 8.16 51.42 10.922 77.84-15.449-5.58-30.332-12.82-44.332-21.64zm62.539-193.62c15.72-6.89 26.18-14.84 31.99-24.32 0.21-0.34 0.34-0.74 0.36-1.15 0.21-3.46 0.28-6.94 0.21-10.42-0.02-0.71-0.04-1.42-0.07-2.13-0.02-0.69-0.06-1.39-0.1-2.08-0.08-1.36-0.17-2.72-0.3-4.07-0.04-0.56-0.1-1.12-0.16-1.68-0.06-0.63-0.13-1.25-0.2-1.87 1.88 0.93 3.78 1.76 5.7 2.48 0.41 0.16 0.82 0.31 1.23 0.45 0.12 0.05 0.24 0.09 0.36 0.13 0.55 0.2 1.11 0.38 1.67 0.56 0.08 0.02 0.15 0.05 0.22 0.06 0.45 0.15 0.89 0.28 1.34 0.4 0.29 0.09 0.58 0.18 0.87 0.25 1.22 0.33 2.44 0.63 3.67 0.88 0.65 0.13 1.31 0.26 1.97 0.37 0.56 0.1 1.13 0.19 1.7 0.27 0.48 0.07 0.96 0.13 1.45 0.18 0.03 0.01 0.06 0.01 0.09 0.01 0.47 0.06 0.94 0.11 1.41 0.15 0.33 0.04 0.65 0.06 0.98 0.08 0.23 0.02 0.46 0.04 0.69 0.05 0.32 0.03 0.64 0.04 0.96 0.05 0.39 0.03 0.79 0.04 1.18 0.05 0.59 0.02 1.18 0.03 1.77 0.03 0.48 0 0.96-0.01 1.43-0.02 0.48-0.01 0.96-0.03 1.44-0.05 0.4-0.02 0.81-0.04 1.22-0.07 2.44-0.16 4.87-0.48 7.27-0.94 0.47-0.09 0.93-0.18 1.4-0.28 0.46-0.1 0.92-0.2 1.37-0.31 2.15-0.52 4.28-1.16 6.38-1.91 0.39-0.13 0.78-0.28 1.17-0.43 0.23-0.08 0.46-0.17 0.69-0.26 0.11-0.04 0.23-0.09 0.34-0.14l7.02-3.3c0.34-0.18 0.68-0.37 1.02-0.56l6.59-4.23c-0.03 0.21-0.07 0.42-0.1 0.63-0.11 0.64-0.21 1.28-0.3 1.92-0.11 0.74-0.21 1.49-0.3 2.23-0.04 0.25-0.07 0.5-0.1 0.74-0.08 0.67-0.16 1.33-0.23 2-0.01 0.12-0.03 0.23-0.04 0.35-0.07 0.7-0.13 1.4-0.19 2.1-0.07 0.74-0.13 1.48-0.17 2.23-0.03 0.37-0.06 0.74-0.07 1.11-0.04 0.67-0.08 1.34-0.1 2-0.01 0.08-0.02 0.15-0.01 0.22-0.04 0.82-0.06 1.64-0.08 2.46-0.01 0.03-0.01 0.05 0 0.07-0.02 0.85-0.03 1.71-0.03 2.56 0 2.56 0.07 5.11 0.23 7.67 0.02 0.41 0.15 0.81 0.36 1.16 5.7 9.3 15.9 17.14 31.13 23.94-0.57 14.79-0.63 29.55-2.03 44.33-0.57 6-1.29 11.98-2.1 17.95-7.29 2.13-14.53 4.42-21.98 5.99-11.94 2.52-24.16 3.97-36.35 4.42-21.72 0.79-42.78-2.3-63.878-6.71-0.992-6.78-1.859-13.56-2.539-20.38-1.441-14.42-1.582-28.81-2.082-43.23 1.563-0.66 3.102-1.32 4.629-1.99zm136.19-143.52c6.05-5.97 13.4-0.02 15.41 7.47 1.61 6.01 1.16 13.09 0.21 19.19-1.87 11.94-11.2 24.75-24.15 21.02 0.21-0.49 0.4-0.98 0.58-1.47 0.66-1.75 1.29-3.53 1.87-5.33 0.17-0.52 0.34-1.05 0.49-1.58 0.18-0.53 0.34-1.06 0.49-1.59 0.28-0.94 0.55-1.89 0.8-2.84 0.35-1.3 0.67-2.6 0.97-3.92 0.16-0.63 0.3-1.27 0.44-1.91 0.21-0.98 0.41-1.96 0.6-2.96 0.18-0.92 0.35-1.85 0.5-2.78 0.1-0.56 0.19-1.12 0.27-1.69 0.09-0.51 0.16-1.01 0.23-1.52 0.15-1.01 0.28-2.02 0.4-3.03 0.24-2 0.43-4.02 0.57-6.05 0.23-3.12 0.34-6.27 0.34-9.44 0-0.52 0-1.05-0.02-1.57zm-140.57 47.42c-0.429-1.03-0.84-2.08-1.238-3.14-4.91-13.01-7.613-27.58-7.613-42.71 0-12.81 1.914-25.029 5.371-36.201 12.359-1.27 24.949-5.731 35.439-10.77 9.58-4.589 18.72-10.468 26.64-17.64 19.44 15.48 45.11 24.832 69.8 22.992 4.61 12.59 7.19 26.709 7.19 41.619 0 16.11-3.03 31.61-8.6 45.32-0.35 0.86-0.71 1.72-1.08 2.57-5.58 12.76-13.41 23.84-23.07 32.22-11.74 10.19-25.39 15.57-39.47 15.57-6.97 0-13.79-1.3-20.36-3.87-1.19-0.46-2.38-0.97-3.55-1.52-1.75-0.82-3.48-1.73-5.19-2.73-0.01-0.01-0.03-0.02-0.05-0.03-14.86-8.7-26.73-23.54-34.219-41.68zm-30.051-40.57c1.442-8.4 9.364-15.86 16.25-8.45-0.039 1.05-0.05 2.11-0.05 3.17 0 1.34 0.023 2.68 0.062 4.02 0.039 1.12 0.078 2.24 0.149 3.36 0.011 0.21 0.019 0.43 0.039 0.64 0.05 0.96 0.121 1.91 0.203 2.87 0.047 0.6 0.109 1.2 0.168 1.79 0.051 0.51 0.101 1.03 0.152 1.54 0.149 1.35 0.32 2.69 0.508 4.02 0.152 1.09 0.32 2.19 0.512 3.28 0.05 0.29 0.097 0.59 0.148 0.88 0.152 0.87 0.309 1.73 0.481 2.6 0.25 1.26 0.519 2.52 0.808 3.77 0.133 0.57 0.262 1.15 0.402 1.72 0.868 3.53 1.879 6.99 3.02 10.36 0.148 0.45 0.309 0.89 0.469 1.34 0.23 0.65 0.461 1.3 0.703 1.93-11.524 2.78-20.852-8.3-23.281-19.07-1.422-6.29-1.832-13.39-0.743-19.77zm240.45 147.84c-11.02-20.18-37.99-39.24-28.43-65.01 4.34-11.68 13.17-21.18 16.77-33.19 3.74-12.47 1.1-25.31-4.09-36.96-6.79-15.24-17.06-28.85-26.31-42.661-0.68-1.02-1.36-2.027-2.04-3.051-0.2-1.269-0.42-2.539-0.65-3.808-6.48-35.508-24.89-65.532-50.5-82.348-10.01-6.5939-19.22-9.8322-28.15-9.922h-0.32c-9.64 0-18.45 4.1719-23.31 10.762-4.91-6.6604-13.89-10.864-23.62-10.762-8.94 0.089844-18.15 3.3281-28.15 9.9219-25.618 16.828-44.028 46.84-50.497 82.348-0.281 1.55-0.551 3.109-0.781 4.66-7.649 11.35-15.641 22.58-22.442 34.45-6.719 11.72-12.418 24.99-11.379 38.79 0.93 12.19 7.641 21.97 13.531 32.26 6.801 11.89 9.481 23.71 3.211 36.5-5.453 11.12-14.461 20.07-21.461 30.18-14.832 21.42-20.531 48.66-15.55 74.23 4.3708 22.46 17.031 42.68 34.89 56.65l-4.371 60.54c-0.07 0.92 0.371 1.8 1.141 2.29 15.422 9.85 31.898 17.82 49.039 23.81 2.152 0.75 4.301 1.47 6.469 2.15 22.98 7.3 47.03 11.07 71.13 11.07 6.88 0 13.78-0.31 20.65-0.93 18.5-1.67 36.77-5.62 54.38-11.67 2.08-0.71 4.16-1.46 6.22-2.24 18.26-6.85 35.75-16 52-27.26 0.73-0.5 1.14-1.35 1.07-2.23-1.53-21.17-3.06-42.35-4.59-63.52 29.37-29.74 36.92-77.02 16.14-115.05" fill="#0f0e0c"/></g>
 </g>
</svg>